<svg id="Layer_1" xmlns="http://www.w3.org/2000/svg" viewBox="0 0 339.4 57.1"><style>.st0{fill:#111847}.st1{fill:#3aa6cc}</style><path class="st0" d="M65.2 17.9c0 1.6-.6 3-1.7 4.2-1.2 1.2-2.6 1.7-4.2 1.7h-12V4.5h12c1.6 0 3 .6 4.2 1.7 1.2 1.2 1.7 2.6 1.7 4.2 0 1.2-.5 2.4-1.6 3.7 1 1.4 1.6 2.6 1.6 3.8zm-4.5 0c0-.4-.1-.8-.4-1.1s-.7-.4-1.1-.4h-7.1L54 12h5.1c.4 0 .8-.1 1.1-.4.3-.3.4-.7.4-1.1 0-.4-.1-.8-.4-1.1-.3-.3-.7-.4-1.1-.4h-7.6v10.5h7.6c.4 0 .8-.1 1.1-.4s.5-.8.5-1.2zm23.5-3.7c0 2.6-.9 4.9-2.6 6.8-1.8 1.9-3.9 2.9-6.4 2.9-2.5 0-4.7-1-6.4-2.9-1.7-1.9-2.6-4.2-2.6-6.8V4.5h4.4v9.7c0 1.4.4 2.6 1.3 3.7.8 1.1 1.9 1.6 3.3 1.6 1.3 0 2.4-.5 3.3-1.6.9-1.1 1.3-2.3 1.3-3.7V4.5h4.4v9.7zm19.1 3.7c0 1.6-.6 3-1.7 4.2-1.2 1.2-2.6 1.7-4.2 1.7h-12v-4.4h12c.4 0 .8-.1 1.1-.4s.4-.7.4-1.1c0-.4-.1-.8-.4-1.1s-.7-.4-1.1-.4h-6.1c-1.6 0-3-.6-4.2-1.7-1.2-1.2-1.7-2.6-1.7-4.2s.6-3 1.7-4.2c1.2-1.2 2.6-1.7 4.2-1.7h12V9h-12c-.4 0-.8.1-1.1.4-.3.3-.4.7-.4 1.1 0 .4.1.8.4 1.1.3.3.7.4 1.1.4h6.1c1.6 0 3 .6 4.2 1.7s1.7 2.6 1.7 4.2zm1.1 6V4.5h4.4v19.4h-4.4zm21.9 0v-8.8l-4.6 8.8h-2.8l-4.6-8.8v8.8H110V4.5h4.4l5.9 11.9 5.9-11.9h4.4v19.4h-4.3zm5.5 0V4.5h4.4v19.4h-4.4zm19.4 0l-4.1-5.8-4.1 5.8h-5.5l6.9-9.7-6.9-9.7h5.5l4.1 5.8 4.1-5.8h5.5l-6.9 9.7 6.9 9.7h-5.5z"/><path class="st1" d="M175.9 8.9v14.9h-4.4V8.9h-6.8V4.5h18v4.4h-6.8zm19.7 15l-6.9-7.5 1.9-4.4h5.1c.4 0 .8-.1 1.1-.4.3-.3.4-.7.4-1.1 0-.4-.1-.8-.4-1.1-.3-.3-.7-.4-1.1-.4h-7.6v14.9h-4.4V4.5h12c1.6 0 3 .6 4.2 1.7 1.2 1.2 1.7 2.6 1.7 4.2s-.6 3-1.7 4.2c-1.2 1.2-2.6 1.7-4.2 1.7h-1l6.9 7.5h-6zm16.7 0l-1.9-4.4h6.3l-3.4-7.7-5.4 12.2h-5v-4.4h2l6.6-14.9h3.6l8.6 19.4h-11.4zm25.9 0l-9.1-11v11h-4.4V4.5h4.4l9.1 11v-11h4.4v19.4h-4.4zm23.5-6c0 1.6-.6 3-1.7 4.2-1.2 1.2-2.6 1.7-4.2 1.7h-12v-4.4h12c.4 0 .8-.1 1.1-.4s.4-.7.4-1.1c0-.4-.1-.8-.4-1.1s-.7-.4-1.1-.4h-6.1c-1.6 0-3-.6-4.2-1.7-1.2-1.2-1.7-2.6-1.7-4.2s.6-3 1.7-4.2c1.2-1.2 2.6-1.7 4.2-1.7h12V9h-12c-.4 0-.8.1-1.1.4-.3.3-.4.7-.4 1.1 0 .4.1.8.4 1.1.3.3.7.4 1.1.4h6.1c1.6 0 3 .6 4.2 1.7s1.7 2.6 1.7 4.2zm19.1-7.4c0 1.6-.6 3-1.7 4.2-1.2 1.2-2.6 1.7-4.2 1.7h-7.1l1.9-4.4h5.1c.4 0 .8-.1 1.1-.4.3-.3.4-.7.4-1.1 0-.4-.1-.8-.4-1.1-.3-.3-.7-.4-1.1-.4h-7.6v14.9h-4.4V4.5h12c1.6 0 3 .6 4.2 1.7 1.2 1.2 1.8 2.6 1.8 4.3zm20.5 3.7c0 2.7-.9 5-2.8 6.9-1.9 1.9-4.2 2.8-6.8 2.8-2.7 0-5-.9-6.9-2.8-1.9-1.9-2.8-4.2-2.8-6.9s.9-4.9 2.8-6.8c1.9-1.9 4.2-2.8 6.9-2.8s4.9.9 6.8 2.8c1.8 1.8 2.8 4.1 2.8 6.8zm-4.4 0c0-1.4-.5-2.7-1.5-3.7S293.1 9 291.7 9c-1.4 0-2.7.5-3.7 1.5s-1.5 2.3-1.5 3.7c0 1.5.5 2.7 1.5 3.7s2.2 1.5 3.7 1.5 2.7-.5 3.7-1.5c.9-1 1.5-2.3 1.5-3.7zm17.3 9.7l-6.9-7.5 1.9-4.4h5.1c.4 0 .8-.1 1.1-.4.3-.3.4-.7.4-1.1 0-.4-.1-.8-.4-1.1-.3-.3-.7-.4-1.1-.4h-7.6v14.9h-4.4V4.5h12c1.6 0 3 .6 4.2 1.7 1.2 1.2 1.7 2.6 1.7 4.2s-.6 3-1.7 4.2c-1.2 1.2-2.6 1.7-4.2 1.7h-1l6.9 7.5h-6zm18.5-15v14.9h-4.4V8.9h-6.8V4.5h18v4.4h-6.8z"/><path class="st0" d="M54.7 33.6c0 .7-.3 1.3-.8 1.8s-1.1.8-1.8.8h-5.2v-1.9h5.2c.2 0 .3-.1.5-.2s.2-.3.2-.5-.1-.3-.2-.5-.3-.1-.5-.1h-2.6c-.7 0-1.3-.3-1.8-.8s-.8-1.1-.8-1.8.3-1.3.8-1.8 1.1-.8 1.8-.8h5.2v1.9h-5.2c-.2 0-.3.1-.5.2s-.2.3-.2.5.1.3.2.5.3.2.5.2h2.6c.7 0 1.3.3 1.8.8.6.4.8 1 .8 1.7zm2.2 2.6v-8.4h7.2v1.9h-5.3V31h4.1v2h-4.1v1.3h5.3v1.9h-7.2zm14.5 0l-3-3.2.8-1.9h2.2c.2 0 .3-.1.5-.2s.2-.3.2-.5-.1-.3-.2-.5-.3-.2-.5-.2h-3.3v6.5h-1.9v-8.4h5.2c.7 0 1.3.3 1.8.8s.8 1.1.8 1.8-.3 1.3-.8 1.8-1.1.8-1.8.8H71l3 3.2h-2.6zm9.5 0h-1.6l-3.7-8.4h2.2l2.3 5.3 2.3-5.3h2.2l-3.7 8.4zm5.9 0v-8.4h1.9v8.4h-1.9zm8.2 0c-1.2 0-2.2-.4-3-1.2-.8-.8-1.2-1.8-1.2-3s.4-2.1 1.2-3c.8-.8 1.8-1.2 3-1.2h3v1.9h-3c-.6 0-1.2.2-1.6.7-.4.4-.7 1-.7 1.6 0 .6.2 1.2.7 1.6.4.4 1 .7 1.6.7h3v1.9h-3zm5.2 0v-8.4h1.9v8.4h-1.9zm10 0l-4-4.8v4.8h-1.9v-8.4h1.9l4 4.8v-4.8h1.9v8.4h-1.9zm8.2 0c-1.2 0-2.2-.4-3-1.2-.8-.8-1.2-1.8-1.2-3s.4-2.1 1.2-3c.8-.8 1.8-1.2 3-1.2h4.2v1.9h-4.2c-.6 0-1.2.2-1.6.7-.4.4-.7 1-.7 1.6 0 .6.2 1.2.7 1.6.4.4 1 .7 1.6.7h2.3V33h-1.2l-.8-1.9h4v5.2h-4.3zm15.9-6.5v6.5h-1.9v-6.5h-2.9v-1.9h7.8v1.9h-3zm5.1 6.5v-8.4h1.9v8.4h-1.9zm5.9 0V33h-3.7l.8-1.9h2.9v-3.2h1.9v8.4h-1.9zm4.1 0v-8.4h7.2v1.9h-5.3V31h4.1v2h-4.1v1.3h5.3v1.9h-7.2zm14 0v-8.4h7.2v1.9h-5.3V31h4.1v2h-4.1v1.3h5.3v1.9h-7.2zm11.7 0l-.8-1.9h2.7l-1.5-3.4-2.3 5.3H171v-1.9h.9l2.9-6.5h1.6l3.7 8.4h-5zm14.9-2.6c0 .7-.3 1.3-.8 1.8s-1.1.8-1.8.8h-5.2v-1.9h5.2c.2 0 .3-.1.5-.2s.2-.3.2-.5-.1-.3-.2-.5-.3-.2-.5-.2h-2.6c-.7 0-1.3-.3-1.8-.8s-.8-1.1-.8-1.8.3-1.3.8-1.8 1.1-.8 1.8-.8h5.2v1.9h-5.2c-.2 0-.3.1-.5.2s-.2.3-.2.5.1.3.2.5.3.2.5.2h2.6c.7 0 1.3.3 1.8.8s.8 1.1.8 1.8zm5.8-3.9v6.5h-1.9v-6.5H191v-1.9h7.8v1.9h-3zm14 6.5c-1.2 0-2.2-.4-3-1.2-.8-.8-1.2-1.8-1.2-3s.4-2.1 1.2-3c.8-.8 1.8-1.2 3-1.2h3v1.9h-3c-.6 0-1.2.2-1.6.7-.4.4-.7 1-.7 1.6 0 .6.2 1.2.7 1.6.4.4 1 .7 1.6.7h3v1.9h-3zm13.5-4.2c0 1.2-.4 2.2-1.2 3-.8.8-1.8 1.2-3 1.2s-2.2-.4-3-1.2c-.8-.8-1.2-1.8-1.2-3s.4-2.1 1.2-3c.8-.8 1.8-1.2 3-1.2s2.1.4 3 1.2c.8.9 1.2 1.8 1.2 3zm-1.9 0c0-.6-.2-1.2-.7-1.6-.4-.4-1-.7-1.6-.7-.6 0-1.2.2-1.6.7-.4.4-.7 1-.7 1.6 0 .6.2 1.2.7 1.6.4.4 1 .7 1.6.7.6 0 1.2-.2 1.6-.7.5-.4.7-1 .7-1.6zm7 4.2l-.8-1.9h2.7l-1.5-3.4-2.3 5.3h-2.2v-1.9h.9l2.9-6.5h1.6l3.7 8.4h-5zm14.9-2.6c0 .7-.3 1.3-.8 1.8s-1.1.8-1.8.8h-5.2v-1.9h5.2c.2 0 .3-.1.5-.2.1-.1.2-.3.2-.5s-.1-.3-.2-.5c-.1-.1-.3-.2-.5-.2h-2.6c-.7 0-1.3-.3-1.8-.8s-.8-1.1-.8-1.8.3-1.3.8-1.8 1.1-.8 1.8-.8h5.2v1.9h-5.2c-.2 0-.3.1-.5.2-.1.1-.2.3-.2.5s.1.3.2.5c.1.1.3.2.5.2h2.6c.7 0 1.3.3 1.8.8s.8 1.1.8 1.8zm5.8-3.9v6.5h-1.9v-6.5h-2.9v-1.9h7.8v1.9h-3z"/><path class="st1" d="M37.1 8.6c-2-2.1-4.5-3.9-7.1-5-2.7-1.1-5.6-1.7-8.4-1.5 5.7.2 11 3.3 14.4 7.6 3.4 4.3 5 9.9 4.7 15.2-.3 5.3-2.4 10.5-5.9 14.2-2.5 2.7-5.8 4.5-9.2 5.2l1.7-4-17.8 7.4 17.7 7.5-2-4.7c2-.4 4-1.2 5.8-2.1 2.9-1.5 5.4-3.7 7.3-6.1 3.9-5 5.8-11.2 5.5-17.3-.3-6.2-2.6-12.1-6.7-16.4z"/><path class="st1" d="M31.1 28.4c0 2.7-1 5.1-2.9 7-1.9 1.9-4.3 2.9-7 2.9H1V6h20.1c2.7 0 5.1 1 7 2.9 1.9 1.9 2.9 4.3 2.9 7 0 2-.9 4.1-2.7 6.3 1.9 2.2 2.8 4.2 2.8 6.2zm-7.4 0c0-.7-.2-1.3-.7-1.8-.5-.5-1.1-.7-1.8-.7H9.3l3.2-7.4h8.6c.7 0 1.3-.2 1.8-.7.5-.5.7-1.1.7-1.8s-.2-1.3-.7-1.8c-.5-.5-1.1-.7-1.8-.7H8.4V31h12.7c.7 0 1.3-.2 1.8-.7.5-.5.8-1.1.8-1.9z"/><path class="st0" d="M31.1 28.4c0 2.7-1 5.1-2.9 7-1.9 1.9-4.3 2.9-7 2.9H1V6h20.1c2.7 0 5.1 1 7 2.9 1.9 1.9 2.9 4.3 2.9 7 0 2-.9 4.1-2.7 6.3 1.9 2.2 2.8 4.2 2.8 6.2zm-3.2 0c0-1.4-.4-2.7-1.2-3.8-.8-1.1-1.8-2-3.1-2.5 1.3-.5 2.3-1.3 3.1-2.5.8-1.1 1.2-2.4 1.2-3.8 0-1.9-.7-3.4-2-4.7-1.3-1.3-2.9-2-4.7-2h-17V35h16.9c1.9 0 3.4-.6 4.7-1.9 1.4-1.2 2.1-2.8 2.1-4.7zm-1 0c0 1.6-.6 3-1.7 4.1-1.1 1.1-2.5 1.7-4.1 1.7h-16V10.1h16c1.6 0 3 .6 4.1 1.7 1.1 1.1 1.7 2.5 1.7 4.1 0 1.6-.6 3-1.7 4.1-1.1 1.1-2.5 1.7-4.1 1.7h-10l1.4-3.2h8.6c.7 0 1.3-.2 1.8-.7.5-.5.7-1.1.7-1.8s-.2-1.3-.7-1.8c-.5-.5-1.1-.7-1.8-.7H8.4V31h12.7c.7 0 1.3-.2 1.8-.7.5-.5.7-1.1.7-1.8s-.2-1.3-.7-1.8c-.5-.5-1.1-.7-1.8-.7H9.3l1.4-3.2h10.4c1.6 0 3 .6 4.1 1.7 1.2 1 1.7 2.3 1.7 3.9z"/></svg>