<svg id="Layer_1" xmlns="http://www.w3.org/2000/svg" viewBox="0 0 48 57.1"><style>.st0{fill:#3aa6cc}</style><path class="st0" d="M37.1 8.6c-2-2.1-4.5-3.9-7.1-5-2.7-1.1-5.6-1.7-8.4-1.5 5.7.2 11 3.3 14.4 7.6s5 9.9 4.7 15.2-2.4 10.5-5.9 14.2c-2.5 2.7-5.8 4.5-9.2 5.2l1.7-4-17.8 7.4 17.7 7.5-2-4.7c2-.4 4-1.2 5.8-2.1 2.9-1.5 5.4-3.7 7.3-6.1 3.9-5 5.8-11.2 5.5-17.3-.3-6.2-2.6-12.1-6.7-16.4z"/><path class="st0" d="M31.1 28.4c0 2.7-1 5.1-2.9 7s-4.3 2.9-7 2.9H1V6h20.1c2.7 0 5.1 1 7 2.9s2.9 4.3 2.9 7c0 2-.9 4.1-2.7 6.3 1.9 2.2 2.8 4.2 2.8 6.2zm-7.4 0c0-.7-.2-1.3-.7-1.8s-1.1-.7-1.8-.7H9.3l3.2-7.4h8.6c.7 0 1.3-.2 1.8-.7s.7-1.1.7-1.8-.2-1.3-.7-1.8-1.1-.7-1.8-.7H8.4V31h12.7c.7 0 1.3-.2 1.8-.7.5-.5.8-1.1.8-1.9z"/><path d="M31.1 28.4c0 2.7-1 5.1-2.9 7s-4.3 2.9-7 2.9H1V6h20.1c2.7 0 5.1 1 7 2.9s2.9 4.3 2.9 7c0 2-.9 4.1-2.7 6.3 1.9 2.2 2.8 4.2 2.8 6.2zm-3.2 0c0-1.4-.4-2.7-1.2-3.8-.8-1.1-1.8-2-3.1-2.5 1.3-.5 2.3-1.3 3.1-2.5.8-1.1 1.2-2.4 1.2-3.8 0-1.9-.7-3.4-2-4.7s-2.9-2-4.7-2h-17V35h16.9c1.9 0 3.4-.6 4.7-1.9 1.4-1.2 2.1-2.8 2.1-4.7zm-1 0c0 1.6-.6 3-1.7 4.1-1.1 1.1-2.5 1.7-4.1 1.7h-16V10.1h16c1.6 0 3 .6 4.1 1.7s1.7 2.5 1.7 4.1-.6 3-1.7 4.1-2.5 1.7-4.1 1.7h-10l1.4-3.2h8.6c.7 0 1.3-.2 1.8-.7s.7-1.1.7-1.8-.2-1.3-.7-1.8-1.1-.7-1.8-.7H8.4V31h12.7c.7 0 1.3-.2 1.8-.7s.7-1.1.7-1.8-.2-1.3-.7-1.8-1.1-.7-1.8-.7H9.3l1.4-3.2h10.4c1.6 0 3 .6 4.1 1.7 1.2 1 1.7 2.3 1.7 3.9z" fill="#111847"/></svg>