<svg id="Layer_1" xmlns="http://www.w3.org/2000/svg" viewBox="0 0 103 103"><style>.st0{fill:#eaea2d}.st1{fill:#3aa6cc}</style><path class="st0" d="M31.8 45.2h-8.1c-3.2 0-5.8 2.6-5.8 5.8v12.3c0 1.2 1 2.3 2.3 2.3h1.6c.7-2.1 2.7-3.6 5.1-3.6 2.3 0 4.3 1.5 5 3.6 1.1-.1 1.9-1 1.9-2V47.2c.1-1.1-.8-2-2-2zm-2.7 9.6c0 .6-.5 1.1-1.1 1.1h-6.8c-.3 0-.5-.2-.5-.5v-4.6c0-1.8 1.5-3.2 3.2-3.2h4c.6 0 1.1.5 1.1 1.1v6.1z"/><circle class="st1" cx="26.9" cy="67.2" r="4.2"/><path class="st1" d="M67.9 55.5h-5.2c.5 0 .9-.2 1.3-.5.3-.3.5-.8.5-1.3 0-1-.8-1.8-1.8-1.8h-4c.1 0 .1-.1.1-.1.3-.3.5-.8.5-1.3 0-1-.8-1.8-1.8-1.8H69c.5 0 .9-.2 1.3-.5.3-.3.5-.8.5-1.3 0-1-.8-1.8-1.8-1.8h-6.4c.5 0 .9-.2 1.3-.5.3-.3.5-.8.5-1.3 0-1-.8-1.8-1.8-1.8h4c.5 0 .9-.2 1.3-.5.3-.3.5-.8.5-1.3 0-1-.8-1.8-1.8-1.8H37c-1.1 0-1.9.9-1.9 1.9V63c0 1.1.9 1.9 1.9 1.9h22.9c.5 0 .9-.2 1.3-.5.3-.3.5-.8.5-1.3 0-.2 0-.4-.1-.6h2.7c.5 0 .9-.2 1.3-.5.3-.3.5-.8.5-1.3 0-1-.8-1.8-1.8-1.8h3.6c.5 0 .9-.2 1.3-.5.3-.3.5-.8.5-1.3 0-.8-.8-1.6-1.8-1.6z"/><path class="st0" d="M72.6 41.6h1.2c.5 0 .9-.2 1.3-.5.3-.3.5-.8.5-1.3 0-1-.8-1.8-1.8-1.8h-1.2c-.5 0-.9.2-1.3.5-.3.3-.5.8-.5 1.3.1 1 .9 1.8 1.8 1.8z"/><path class="st1" d="M78.2 45.2h-4.4c-.5 0-.9.2-1.3.5-.3.3-.5.8-.5 1.3 0 1 .8 1.8 1.8 1.8h4.4c.5 0 .9-.2 1.3-.5.3-.3.5-.8.5-1.3 0-1-.8-1.8-1.8-1.8z"/><path class="st0" d="M75.1 55c.3-.3.5-.8.5-1.3 0-1-.8-1.8-1.8-1.8h-6c-.5 0-.9.2-1.3.5-.3.3-.5.8-.5 1.3 0 1 .8 1.8 1.8 1.8h6c.5 0 1-.2 1.3-.5z"/><path class="st1" d="M75.4 59.1h-2.8c-.5 0-.9.2-1.3.5-.3.3-.5.8-.5 1.3 0 1 .8 1.8 1.8 1.8h2.8c.5 0 .9-.2 1.3-.5.3-.3.5-.8.5-1.3 0-1-.8-1.8-1.8-1.8z"/><path class="st1" d="M51.5 103C23.1 103 0 79.9 0 51.5S23.1 0 51.5 0 103 23.1 103 51.5 79.9 103 51.5 103zm0-98C25.9 5 5 25.9 5 51.5S25.9 98 51.5 98 98 77.1 98 51.5 77.1 5 51.5 5z"/></svg>