<svg id="Layer_1" xmlns="http://www.w3.org/2000/svg" viewBox="0 0 103 103"><style>.st0{fill:#3aa6cc}.st1{fill:#eaea2d}</style><path class="st0" d="M51.5 103C23.1 103 0 79.9 0 51.5S23.1 0 51.5 0 103 23.1 103 51.5 79.9 103 51.5 103zm0-98C25.9 5 5 25.9 5 51.5S25.9 98 51.5 98 98 77.1 98 51.5 77.1 5 51.5 5z"/><path class="st0" d="M51.5 17.5c-7.9 0-14.3 8.1-14.3 18 0 .7 0 1.4.1 2.1h1.6c-.1-.7-.1-1.4-.1-2.1 0-9 5.7-16.4 12.7-16.4s12.7 7.4 12.7 16.4c0 .7 0 1.4-.1 2.1h1.6c.1-.7.1-1.4.1-2.1 0-9.9-6.4-18-14.3-18z"/><path class="st1" d="M62.3 35.8c0 4.3-1.4 8.2-3.6 10.8-1.9 2.3-4.4 3.7-7.2 3.7s-5.3-1.4-7.2-3.7c-2.2-2.7-3.6-6.5-3.6-10.8 0-8 4.9-14.5 10.8-14.5s10.8 6.4 10.8 14.5z"/><path class="st0" d="M38.7 40.2c-1 0-1.9-.8-1.9-1.9V32c0-1 .8-1.9 1.9-1.9 1 0 1.9.8 1.9 1.9v6.3c0 1.1-.9 1.9-1.9 1.9z"/><path class="st0" d="M51.7 46c-7 0-11.6-1.3-13.4-3.9-1.1-1.5-1-3.1-.7-3.7l1.9.6s-.3 1 .5 2c.8 1.1 3.5 3 11.8 3v2z"/><path class="st0" d="M53.3 46.1H49c-.6 0-1.1-.5-1.1-1.1 0-.6.5-1.1 1.1-1.1h4.2c.6 0 1.1.5 1.1 1.1 0 .6-.5 1.1-1 1.1zm8.2 1.1c-2.5 2.5-6.1 4.1-10 4.1s-7.6-1.6-10-4.1c-3.1.9-5.3 3.1-5.3 5.6v7.9c0 1.8 1.2 3.5 3 4.6v8.6c0 .7.6 1.3 1.3 1.3.7 0 1.3-.6 1.3-1.3v-3.7c0 .7.6 1.3 1.3 1.3s1.3-.6 1.3-1.3v6.3c0 .7.6 1.3 1.3 1.3s1.3-.6 1.3-1.3v-2.1c.2.2.5.3.8.3.7 0 1.3-.6 1.3-1.3v-3.7c0 .7.6 1.3 1.3 1.3s1.3-.6 1.3-1.3v3.7c0 .7.6 1.3 1.3 1.3.7 0 1.3-.6 1.3-1.3v-3.2c0 .7.6 1.3 1.3 1.3.7 0 1.3-.6 1.3-1.3v6.3c0 .7.6 1.3 1.3 1.3s1.3-.6 1.3-1.3v-3.2c0 .7.6 1.3 1.3 1.3s1.3-.6 1.3-1.3v-7.4c2.6-1 4.4-3 4.4-5.3v-7.9c.3-2.4-1.9-4.6-5-5.5z"/><path class="st1" d="M50.5 80.4c-.7 0-1.3-.6-1.3-1.3v-1.6c0-.7.6-1.3 1.3-1.3.7 0 1.3.6 1.3 1.3v1.6c.1.7-.5 1.3-1.3 1.3zm5.3 3.2c-.7 0-1.3-.6-1.3-1.3v-3.7c0-.7.6-1.3 1.3-1.3.7 0 1.3.6 1.3 1.3v3.7c0 .7-.6 1.3-1.3 1.3z"/><path class="st0" d="M61.4 82.5c-.6 0-1.1-.5-1.1-1.1v-2.6c0-.6.5-1.1 1.1-1.1.6 0 1.1.5 1.1 1.1v2.6c-.1.7-.5 1.1-1.1 1.1z"/></svg>