<svg id="Layer_1" xmlns="http://www.w3.org/2000/svg" viewBox="0 0 103 103"><style>.st0{fill:#3aa6cc}.st1{fill:#eaea2d}</style><path class="st0" d="M51.5 103C23.1 103 0 79.9 0 51.5S23.1 0 51.5 0 103 23.1 103 51.5 79.9 103 51.5 103zm0-98C25.9 5 5 25.9 5 51.5S25.9 98 51.5 98 98 77.1 98 51.5 77.1 5 51.5 5z"/><path class="st0" d="M67 38.1l1-3.5 3-10.7c.1-.3.1-.5.1-.8.1-2.1-1.9-3.8-4.1-3.3l-14.3 3.7c-2.5.6-3.3 3.7-1.5 5.5l.4.4-1.9 1.9-12.1 12.1c-.6.6-.8 1.5-.4 1.9.4.4 1.3.2 1.9-.4l-5.6 5.6c-.6.6-.8 1.5-.4 1.9.4.4 1.3.2 1.9-.4l8.4-8.4c-.6.6-.8 1.5-.4 1.9.4.4 1.3.2 1.9-.4l-4.2 4.2c-.6.6-.8 1.5-.4 1.9.4.4 1.3.2 1.9-.4l2.5-2.5c-.1.4.1.8.4 1.1.5.5 1.4.5 1.9 0l-2.1 2.1c-.4.4-.4 1 0 1.4.4.4 1 .4 1.4 0l2.3-2.3c.4-.4.4-1 0-1.4-.4-.4-1-.4-1.4 0l2.8-2.8c-.4.4-.4 1 0 1.4s1 .4 1.4 0l9.1-9.1 1.1 1.1c.3.3.6.5.9.7 1.6.6 3.9-.3 4.5-2.4z"/><path class="st0" d="M39 51.8c-.4-.4-1-.4-1.4 0l-3.3 3.3c-.4.4-.4 1 0 1.4s1 .4 1.4 0l3.3-3.3c.4-.3.4-1 0-1.4zm3.8 2.8c-.4-.4-1-.4-1.4 0L40 56c-.4.4-.4 1 0 1.4.4.4 1 .4 1.4 0l1.4-1.4c.4-.3.4-1 0-1.4z"/><path class="st1" d="M49.8 77.7l-3.5 1-10.7 3c-.3.1-.5.1-.8.1-2.1.1-3.8-1.9-3.3-4.1l3.7-14.3c.6-2.5 3.7-3.3 5.5-1.5l.4.4 1.9-1.9 11.9-11.9c.6-.6 1.5-.8 1.9-.4.4.4.2 1.3-.4 1.9l5.6-5.6c.6-.6 1.5-.8 1.9-.4.4.4.2 1.3-.4 1.9l-8.4 8.4c.6-.6 1.5-.8 1.9-.4.4.4.2 1.3-.4 1.9l4.2-4.2c.6-.6 1.5-.8 1.9-.4.4.4.2 1.3-.4 1.9l-2.5 2.5c.4-.1.8.1 1.1.4.5.5.5 1.4 0 1.9l2.1-2.1c.4-.4 1-.4 1.4 0 .4.4.4 1 0 1.4l-2.3 2.3c-.4.4-1 .4-1.4 0-.4-.4-.4-1 0-1.4l-2.8 2.8c.4-.4 1-.4 1.4 0 .4.4.4 1 0 1.4l-9.1 9.1 1.1 1.1c.3.3.5.6.7.9.8 1.5-.1 3.8-2.2 4.3z"/><path class="st1" d="M63.5 49.8c-.4-.4-.4-1 0-1.4l3.3-3.3c.4-.4 1-.4 1.4 0 .4.4.4 1 0 1.4l-3.3 3.3c-.3.4-1 .4-1.4 0zm2.9 3.7c-.4-.4-.4-1 0-1.4l1.4-1.4c.4-.4 1-.4 1.4 0 .4.4.4 1 0 1.4l-1.4 1.4c-.4.4-1.1.4-1.4 0z"/></svg>