<svg id="Layer_1" xmlns="http://www.w3.org/2000/svg" viewBox="0 0 916.4 245.7"><style>.st0{fill:#3aa6cc}.st1{fill:#fff}</style><path class="st0" d="M48.8 36.4c0 4.5-1.6 8.3-4.7 11.4s-7 4.7-11.4 4.7H0V0h32.6C37 0 40.9 1.6 44 4.7s4.7 7 4.7 11.4c0 3.3-1.5 6.6-4.4 10.1 3 3.6 4.5 6.9 4.5 10.2zm-12 0c0-1.1-.4-2.1-1.2-2.9-.8-.8-1.8-1.2-2.9-1.2H13.5l5.3-12h13.9c1.1 0 2.1-.4 2.9-1.2.8-.8 1.2-1.8 1.2-2.9 0-1.1-.4-2.1-1.2-2.9-.8-.8-1.8-1.2-2.9-1.2H12v28.5h20.6c1.1 0 2.1-.4 2.9-1.2.8-.9 1.3-1.9 1.3-3zm63.7-10.1c0 7.2-2.4 13.3-7 18.5-4.8 5.2-10.5 7.8-17.3 7.8-6.9 0-12.7-2.6-17.4-7.8-4.6-5.1-7-11.3-7-18.5V0h12v26.3c0 3.8 1.2 7.1 3.5 10 2.3 2.9 5.3 4.3 8.9 4.3 3.5 0 6.5-1.4 8.9-4.3 2.3-2.9 3.5-6.2 3.5-10V0h12v26.3zm51.7 10.1c0 4.5-1.6 8.3-4.7 11.4s-7 4.7-11.4 4.7h-32.6v-12h32.6c1.1 0 2.1-.4 2.9-1.2.8-.8 1.2-1.8 1.2-2.9 0-1.1-.4-2.1-1.2-2.9-.8-.8-1.8-1.2-2.9-1.2h-16.5c-4.5 0-8.3-1.6-11.4-4.7s-4.7-6.9-4.7-11.4c0-4.4 1.6-8.3 4.7-11.4s7-4.8 11.4-4.8h32.6L147 12h-27.4c-1.2 0-2.1.4-2.9 1.2-.8.8-1.2 1.8-1.2 2.9 0 1.2.4 2.1 1.2 2.9.8.8 1.8 1.2 2.9 1.2h16.5c4.4 0 8.3 1.6 11.4 4.7s4.7 7 4.7 11.5zm3 16.1V0h12v52.5h-12zm59.3 0V28.7l-12.4 23.8h-7.5l-12.4-23.8v23.8h-12V0h12l16.1 32.3L214.5 0h12v52.5h-12zm15 0V0h12v52.5h-12zm52.5 0l-11.3-15.8-11.3 15.8h-15l18.8-26.3L244.5 0h15l11.3 15.8L282 0h15l-18.8 26.3L297 52.5h-15z"/><path class="st1" d="M349.1 12v40.5h-12V12h-18.4V0h48.8v12h-18.4zm53.5 40.5L384 32.3l5.3-12h13.9c1.1 0 2.1-.4 2.9-1.2.8-.8 1.2-1.8 1.2-2.9 0-1.1-.4-2.1-1.2-2.9-.8-.8-1.8-1.2-2.9-1.2h-20.6v40.5h-12V0h32.6c4.4 0 8.3 1.6 11.4 4.7 3.2 3.1 4.7 7 4.7 11.4 0 4.5-1.6 8.3-4.7 11.4-3.1 3.1-6.9 4.7-11.4 4.7h-2.7l18.8 20.3h-16.7zm45.1 0l-5.3-12h17.2l-9.3-21-14.6 33h-13.5L445.5 0h9.8l23.3 52.5h-30.9zm70.5 0l-24.8-29.8v29.8h-12V0h12l24.8 29.8V0h12v52.5h-12zM582 36.4c0 4.5-1.6 8.3-4.7 11.4-3.2 3.1-7 4.7-11.4 4.7h-32.6v-12h32.6c1.1 0 2.1-.4 2.9-1.2.8-.8 1.2-1.8 1.2-2.9 0-1.1-.4-2.1-1.2-2.9-.8-.8-1.8-1.2-2.9-1.2h-16.5c-4.5 0-8.3-1.6-11.4-4.7-3.1-3.1-4.7-6.9-4.7-11.4 0-4.4 1.6-8.3 4.7-11.4 3.2-3.1 6.9-4.7 11.4-4.7H582l-5.3 12h-27.4c-1.2 0-2.1.4-2.9 1.2-.8.8-1.2 1.8-1.2 2.9 0 1.2.4 2.1 1.2 2.9.8.8 1.8 1.2 2.9 1.2h16.5c4.4 0 8.3 1.6 11.4 4.7 3.2 3.1 4.8 6.9 4.8 11.4zm51.7-20.3c0 4.5-1.6 8.3-4.7 11.4-3.2 3.1-7 4.7-11.4 4.7h-19.1l5.3-12h13.9c1.1 0 2.1-.4 2.9-1.2.8-.8 1.2-1.8 1.2-2.9 0-1.1-.4-2.1-1.2-2.9-.8-.8-1.8-1.2-2.9-1.2H597v40.5h-12V0h32.6c4.4 0 8.3 1.6 11.4 4.7 3.2 3.2 4.7 7 4.7 11.4zm55.5 10.2c0 7.3-2.6 13.5-7.7 18.6-5.1 5.1-11.3 7.6-18.5 7.6-7.3 0-13.5-2.5-18.6-7.6-5.1-5.1-7.7-11.3-7.7-18.6 0-7.2 2.5-13.4 7.7-18.5C649.5 2.6 655.7 0 663 0c7.2 0 13.4 2.6 18.5 7.7 5.2 5.1 7.7 11.3 7.7 18.6zm-12 0c0-3.9-1.4-7.2-4.2-10-2.8-2.8-6.1-4.2-10-4.2s-7.3 1.4-10 4.2c-2.8 2.8-4.2 6.1-4.2 10 0 4 1.4 7.3 4.2 10.1 2.7 2.8 6.1 4.1 10 4.1 3.9 0 7.3-1.4 10-4.1 2.8-2.8 4.2-6.2 4.2-10.1zm47.1 26.2l-18.6-20.3 5.3-12h13.9c1.1 0 2.1-.4 2.9-1.2.8-.8 1.2-1.8 1.2-2.9 0-1.1-.4-2.1-1.2-2.9-.8-.8-1.8-1.2-2.9-1.2h-20.6v40.5h-12V0h32.6c4.4 0 8.3 1.6 11.4 4.7 3.1 3.1 4.7 7 4.7 11.4 0 4.5-1.6 8.3-4.7 11.4-3.2 3.1-7 4.7-11.4 4.7h-2.7L741 52.5h-16.7zM787.5 12h-13.1v40.5h-12V12H744V0h48.8l-5.3 12zm8.2 40.5V0h12v52.5h-12zm51.8 0l-24.8-29.8v29.8h-12V0h12l24.8 29.8V0h12v52.5h-12zm41.2 0c-7.3 0-13.5-2.5-18.6-7.6-5.1-5.1-7.7-11.3-7.7-18.6 0-7.2 2.5-13.4 7.7-18.5 5.1-5.1 11.3-7.7 18.6-7.7h22.5L906 12h-17.3c-4 0-7.3 1.4-10.1 4.2-2.8 2.8-4.1 6.1-4.1 10 0 4 1.4 7.4 4.1 10.1 2.7 2.8 6.1 4.1 10.1 4.1h10.5v-8.3h-12.8l5.3-12h19.5v32.3h-22.5z"/><path class="st0" d="M536.7 138.9l-23.8-28.6v28.6h-11.5V88.5h11.5l23.8 28.6V88.5h11.5v50.4h-11.5z"/><path class="st1" d="M0 138.9V88.5h11.5v38.9h31.7v11.5H0zm96.5-25.2c0 7-2.5 12.9-7.4 17.9-4.9 4.9-10.8 7.3-17.8 7.3s-12.9-2.4-17.9-7.3c-4.9-4.9-7.3-10.9-7.3-17.9 0-7 2.4-12.9 7.3-17.8s10.9-7.4 17.9-7.4c7 0 12.9 2.5 17.8 7.4s7.4 10.8 7.4 17.8zm-11.5 0c0-3.7-1.3-7-4-9.6-2.7-2.7-5.9-4-9.6-4-3.7 0-7 1.3-9.6 4-2.7 2.7-4 5.9-4 9.6 0 3.8 1.3 7 4 9.7 2.6 2.6 5.9 4 9.6 4 3.8 0 7-1.3 9.6-4 2.6-2.7 4-5.9 4-9.7zm31.9 25.2l-5-11.5h16.5l-8.9-20.2-14 31.7h-13l22.3-50.4h9.4l22.3 50.4h-29.6zm79.2-25.2c0 7-2.5 12.9-7.4 17.9-4.9 4.9-10.8 7.3-17.8 7.3h-21.6V88.5h21.6c7 0 12.9 2.5 17.8 7.4 5 4.9 7.4 10.8 7.4 17.8zm-11.5 0c0-3.7-1.3-7-4-9.6-2.7-2.7-5.9-4-9.6-4h-10.1v27.4H171c3.8 0 7-1.3 9.6-4 2.7-2.8 4-6 4-9.8zm82.8 0c0 7-2.5 12.9-7.4 17.9-4.9 4.9-10.8 7.3-17.8 7.3s-12.9-2.4-17.9-7.3c-4.9-4.9-7.3-10.9-7.3-17.9 0-7 2.4-12.9 7.3-17.8s10.9-7.4 17.9-7.4c7 0 12.9 2.5 17.8 7.4s7.4 10.8 7.4 17.8zm-11.5 0c0-3.7-1.3-7-4-9.6-2.7-2.7-5.9-4-9.6-4-3.7 0-7 1.3-9.6 4-2.7 2.7-4 5.9-4 9.6 0 3.8 1.3 7 4 9.7 2.6 2.6 5.9 4 9.6 4 3.8 0 7-1.3 9.6-4 2.6-2.7 4-5.9 4-9.7zm49.7 25.2l-23.8-28.6v28.6h-11.5V88.5h11.5l23.8 28.6V88.5h11.5v50.4h-11.5zm74.1-38.9h-12.6v38.9h-11.5V100H338V88.5h46.8l-5.1 11.5zm7.9 38.9V88.5h11.5v50.4h-11.5zm35.3 0v-19.4h-22.3l5-11.5h17.3V88.5h11.5v50.4h-11.5zm14.4 0V88.5h43.2l-5 11.5h-26.6v7.9h24.5v11.5h-24.5v7.9h31.7v11.5h-43.3zm167.8 0V88.5h11.5v50.4h-11.5zm35.3 0v-19.4H618l5-11.5h17.3V88.5h11.5v50.4h-11.4zm14.4 0V88.5h11.5v50.4h-11.5zm39.6 0c-7 0-12.9-2.4-17.9-7.3-4.9-4.9-7.3-10.9-7.3-17.9 0-7 2.4-12.9 7.3-17.8s10.9-7.4 17.9-7.4H716l-5 11.5h-16.6c-3.8 0-7 1.3-9.7 4-2.6 2.6-4 5.9-4 9.6 0 3.8 1.3 7.1 4 9.7 2.6 2.6 5.9 4 9.7 4h10.1v-7.9h-12.2l5-11.5H716v31h-21.6zm24.4 0V88.5h11.5v50.4h-11.5zm35.3 0v-19.4h-22.3l5-11.5h17.3V88.5h11.5v50.4h-11.5zm67.7 0h-9.4l-6.1-13.8-6.1 13.8h-9.4l-22.3-50.4h13l14 31.7 4.3-9.7-9.7-22h13l3.2 7.3 3.2-7.3h13l-9.7 22 4.3 9.7 14-31.7h13l-22.3 50.4zm29.3 0l-5-11.5h16.5l-8.9-20.2-14 31.7h-13L849 88.5h9.4l22.3 50.4h-29.6zm45.4-23.4v23.4H885v-23.4l-19.4-27H880l10.8 15.1 10.8-15.1H916l-19.5 27zM30.3 245.7L24 231.5h20.4l-11-24.9L16 245.7H0l27.6-62.3h11.6l27.6 62.3H30.3zm97.9-19.1c0 5.3-1.9 9.8-5.6 13.5-3.7 3.7-8.2 5.6-13.5 5.6H70.3v-14.2H109c1.4 0 2.5-.5 3.5-1.4.9-.9 1.4-2.1 1.4-3.5s-.5-2.5-1.4-3.5c-.9-.9-2.1-1.4-3.5-1.4H89.4c-5.3 0-9.8-1.9-13.5-5.6-3.7-3.7-5.6-8.2-5.6-13.5 0-5.3 1.9-9.8 5.6-13.5 3.7-3.7 8.2-5.6 13.5-5.6h38.7l-6.2 14.2H89.4c-1.4 0-2.5.5-3.5 1.4-.9 1-1.4 2.1-1.4 3.5s.5 2.5 1.4 3.5c.9.9 2.1 1.4 3.5 1.4H109c5.3 0 9.8 1.9 13.5 5.6 3.8 3.7 5.7 8.2 5.7 13.5zm25.8 19.1v-62.3h14.2v62.3H154zm69.4-48.1h-15.6v48.1h-14.2v-48.1h-21.8v-14.2h57.9l-6.3 14.2zm97.9 48.1h-11.6l-7.6-17.1-7.6 17.1H283l-27.6-62.3h16l17.4 39.2 5.3-12-12-27.1h16l4 9.1 4-9.1h16l-12 27.1 5.3 12 17.4-39.2h16l-27.5 62.3zm36.2 0l-6.2-14.2h20.4l-11-24.9-17.4 39.2h-16l27.6-62.3h11.6l27.6 62.3h-36.6zm97.9-19.1c0 5.3-1.9 9.8-5.6 13.5s-8.2 5.6-13.5 5.6h-38.7v-14.2h38.7c1.4 0 2.5-.5 3.5-1.4.9-.9 1.4-2.1 1.4-3.5s-.5-2.5-1.4-3.5-2.1-1.4-3.5-1.4h-19.6c-5.3 0-9.8-1.9-13.5-5.6-3.7-3.7-5.6-8.2-5.6-13.5 0-5.3 1.9-9.8 5.6-13.5 3.7-3.7 8.2-5.6 13.5-5.6h38.7l-6.2 14.2h-32.5c-1.4 0-2.5.5-3.5 1.4-.9 1-1.4 2.1-1.4 3.5s.5 2.5 1.4 3.5c.9.9 2.1 1.4 3.5 1.4h19.6c5.3 0 9.8 1.9 13.5 5.6 3.7 3.7 5.6 8.2 5.6 13.5zm25.8 19.1v-62.3h14.2v62.3h-14.2zm61.4 0l-29.4-35.3v35.3H499v-62.3h14.2l29.4 35.3v-35.3h14.2v62.3h-14.2zm69.4-48.1h-15.6v48.1h-14.2v-48.1h-21.8v-14.2h57.8l-6.2 14.2zm9.8 48.1v-62.3h53.4l-6.2 14.2h-32.9v9.8h30.3v14.2h-30.3v9.8h39.2v14.2h-53.5zm100.6 0L693 210.4v35.3h-14.2v-62.3H693l29.4 35.3v-35.3h14.2v62.3h-14.2zm75.7-31.2c0 8.6-3.1 16-9.2 22.1-6.1 6.1-13.4 9.1-22 9.1h-26.7v-62.3h26.7c8.6 0 15.9 3.1 22 9.2 6.1 6 9.2 13.3 9.2 21.9zm-14.3 0c0-4.6-1.7-8.6-5-11.9-3.3-3.3-7.3-5-11.9-5h-12.5v33.8h12.5c4.7 0 8.7-1.6 11.9-4.9 3.4-3.3 5-7.3 5-12zm17.8 31.2v-62.3H855l-6.2 14.2h-32.9v9.8h30.3v14.2h-30.3v9.8H855v14.2h-53.4zm108.6-48.1h-15.6v48.1h-14.2v-48.1h-21.8v-14.2h57.8l-6.2 14.2z"/><path class="st0" d="M584.5 129.8v8.9h-32.3v-7.4c9.6-13.8 15.3-22.4 17.1-25.7 1.8-3.3 2.7-5.8 2.7-7.7 0-1.4-.3-2.5-.8-3.2-.5-.7-1.4-1-2.5-1s-1.9.4-2.5 1.2-.8 2.3-.8 4.6v4.9h-13.2v-1.9c0-2.9.2-5.2.5-6.9.3-1.7 1.2-3.3 2.5-5 1.3-1.6 3.1-2.9 5.2-3.7 2.1-.8 4.7-1.3 7.7-1.3 5.8 0 10.3 1.3 13.2 3.8 3 2.6 4.5 5.8 4.5 9.7 0 3-.8 6.1-2.5 9.4-1.7 3.3-6.6 10.4-14.9 21.1h16.1z"/></svg>