<svg xmlns="http://www.w3.org/2000/svg" viewBox="0 0 590.4 128"><path d="M0 72V0h590.4v102c0 8.2-6.7 14.9-14.9 14.9s-14.9-6.7-14.9-14.9V67.5c0 8.2-6.7 14.9-14.9 14.9s-14.9-6.7-14.9-14.9V82c0 8.2-6.7 14.9-14.9 14.9S501 90.2 501 82V55c0 8.2-6.7 14.9-14.9 14.9s-14.9-6.7-14.9-14.9v58.1c0 8.2-6.7 14.9-14.9 14.9s-14.9-6.7-14.9-14.9V86.5c-1.9 6-7.5 10.4-14.2 10.4-8.2 0-14.9-6.7-14.9-14.9V52.9c-2.4 5.1-7.5 8.7-13.5 8.7-8.2 0-14.9-6.7-14.9-14.9v13.8c0 8.2-6.7 14.9-14.9 14.9s-14.9-6.7-14.9-14.9V40.1c-.2 8-6.8 14.5-14.9 14.5s-14.7-6.5-14.9-14.5v-.3V64c0 8.2-6.7 14.9-14.9 14.9-7 0-12.8-4.9-14.4-11.4V96c0 8.2-6.7 14.9-14.9 14.9s-14.9-6.7-14.9-14.9V67.5c0 8.2-6.7 14.9-14.9 14.9s-14.9-6.7-14.9-14.9V82c0 8.2-6.7 14.9-14.9 14.9s-14.9-6.7-14.9-14.9V55c0 8.2-6.7 14.9-14.9 14.9s-14.9-6.7-14.9-14.9v52.1c0 8.2-6.7 14.9-14.9 14.9s-14.9-6.7-14.9-14.9V86.5c-1.9 6-7.5 10.4-14.2 10.4-8.2 0-14.9-6.7-14.9-14.9V52.9c-2.4 5.1-7.5 8.7-13.5 8.7-8.2 0-14.9-6.7-14.9-14.9v13.8c0 8.2-6.7 14.9-14.9 14.9s-14.9-6.7-14.9-14.9V40.1c-.2 8-6.8 14.5-14.9 14.5s-13.8-6.4-14-14.5v-.3V72c0 8.2-6.7 14.9-14.9 14.9S0 80.2 0 72z" fill="#fff"/></svg>