<svg xmlns="http://www.w3.org/2000/svg" viewBox="0 0 590.4 128"><path d="M590.4 56v72H0V26c0-8.2 6.7-14.9 14.9-14.9S29.8 17.8 29.8 26v34.6c0-8.2 6.7-14.9 14.9-14.9s14.9 6.7 14.9 14.9V46c0-8.2 6.7-14.9 14.9-14.9S89.4 37.8 89.4 46v27c0-8.2 6.7-14.9 14.9-14.9s14.9 6.7 14.9 14.9V14.9C119 6.7 125.7 0 133.9 0s14.9 6.7 14.9 14.9v26.7c1.9-6 7.5-10.4 14.2-10.4 8.2 0 14.9 6.7 14.9 14.9v29.1c2.4-5.1 7.5-8.7 13.5-8.7 8.2 0 14.9 6.7 14.9 14.9V67.5c0-8.2 6.7-14.9 14.9-14.9s14.9 6.7 14.9 14.9v20.4c.2-8 6.8-14.5 14.9-14.5s14.7 6.5 14.9 14.5v.3V64c0-8.2 6.7-14.9 14.9-14.9 7 0 12.8 4.9 14.4 11.4V32c0-8.2 6.7-14.9 14.9-14.9S325 23.8 325 32v28.6c0-8.2 6.7-14.9 14.9-14.9s14.9 6.7 14.9 14.9V46c0-8.2 6.7-14.9 14.9-14.9s14.9 6.7 14.9 14.9v27c0-8.2 6.7-14.9 14.9-14.9s14.9 6.7 14.9 14.9V20.9c0-8.2 6.7-14.9 14.9-14.9s14.9 6.7 14.9 14.9v20.7c1.9-6 7.5-10.4 14.2-10.4 8.2 0 14.9 6.7 14.9 14.9v29.1c2.4-5.1 7.5-8.7 13.5-8.7 8.2 0 14.9 6.7 14.9 14.9V67.5c0-8.2 6.7-14.9 14.9-14.9s14.9 6.7 14.9 14.9v20.4c.2-8 6.8-14.5 14.9-14.5s14.7 6.5 14.9 14.5v.3V56c0-8.2 6.7-14.9 14.9-14.9 7.6 0 14.2 6.7 14.2 14.9z" fill="#fff"/></svg>