<?xml version="1.0" encoding="utf-8"?>
<!-- Generator: Adobe Illustrator 22.1.0, SVG Export Plug-In . SVG Version: 6.00 Build 0)  -->
<svg version="1.1" id="Layer_1" xmlns="http://www.w3.org/2000/svg" xmlns:xlink="http://www.w3.org/1999/xlink" x="0px" y="0px"
	 viewBox="0 0 48 57.1" style="enable-background:new 0 0 48 57.1;" xml:space="preserve">
<style type="text/css">
	.st0{fill:#3AA6CC;}
	.st1{fill:#111847;}
</style>
<g>
	<path class="st0" d="M37.1,8.6c-2-2.1-4.5-3.9-7.1-5c-2.7-1.1-5.6-1.7-8.4-1.5c5.7,0.2,11,3.3,14.4,7.6s5,9.9,4.7,15.2
		s-2.4,10.5-5.9,14.2c-2.5,2.7-5.8,4.5-9.2,5.2l1.7-4L9.5,47.7l17.7,7.5l-2-4.7c2-0.4,4-1.2,5.8-2.1c2.9-1.5,5.4-3.7,7.3-6.1
		c3.9-5,5.8-11.2,5.5-17.3C43.5,18.8,41.2,12.9,37.1,8.6z"/>
	<g>
		<g>
			<path class="st0" d="M31.1,28.4c0,2.7-1,5.1-2.9,7s-4.3,2.9-7,2.9H1V6h20.1c2.7,0,5.1,1,7,2.9s2.9,4.3,2.9,7c0,2-0.9,4.1-2.7,6.3
				C30.2,24.4,31.1,26.4,31.1,28.4z M23.7,28.4c0-0.7-0.2-1.3-0.7-1.8s-1.1-0.7-1.8-0.7H9.3l3.2-7.4h8.6c0.7,0,1.3-0.2,1.8-0.7
				s0.7-1.1,0.7-1.8s-0.2-1.3-0.7-1.8s-1.1-0.7-1.8-0.7H8.4V31h12.7c0.7,0,1.3-0.2,1.8-0.7C23.4,29.8,23.7,29.2,23.7,28.4z"/>
		</g>
		<g>
			<path class="st1" d="M31.1,28.4c0,2.7-1,5.1-2.9,7s-4.3,2.9-7,2.9H1V6h20.1c2.7,0,5.1,1,7,2.9s2.9,4.3,2.9,7c0,2-0.9,4.1-2.7,6.3
				C30.2,24.4,31.1,26.4,31.1,28.4z M27.9,28.4c0-1.4-0.4-2.7-1.2-3.8c-0.8-1.1-1.8-2-3.1-2.5c1.3-0.5,2.3-1.3,3.1-2.5
				c0.8-1.1,1.2-2.4,1.2-3.8c0-1.9-0.7-3.4-2-4.7s-2.9-2-4.7-2h-17V35h16.9c1.9,0,3.4-0.6,4.7-1.9C27.2,31.9,27.9,30.3,27.9,28.4z
				 M26.9,28.4c0,1.6-0.6,3-1.7,4.1c-1.1,1.1-2.5,1.7-4.1,1.7h-16V10.1h16c1.6,0,3,0.6,4.1,1.7s1.7,2.5,1.7,4.1s-0.6,3-1.7,4.1
				s-2.5,1.7-4.1,1.7h-10l1.4-3.2h8.6c0.7,0,1.3-0.2,1.8-0.7s0.7-1.1,0.7-1.8s-0.2-1.3-0.7-1.8s-1.1-0.7-1.8-0.7H8.4V31h12.7
				c0.7,0,1.3-0.2,1.8-0.7s0.7-1.1,0.7-1.8c0-0.7-0.2-1.3-0.7-1.8S21.8,26,21.1,26H9.3l1.4-3.2h10.4c1.6,0,3,0.6,4.1,1.7
				C26.4,25.5,26.9,26.8,26.9,28.4z"/>
		</g>
	</g>
</g>
</svg>
