<?xml version="1.0" encoding="utf-8"?>
<!-- Generator: Adobe Illustrator 22.1.0, SVG Export Plug-In . SVG Version: 6.00 Build 0)  -->
<svg version="1.1" id="Layer_1" xmlns="http://www.w3.org/2000/svg" xmlns:xlink="http://www.w3.org/1999/xlink" x="0px" y="0px"
	 viewBox="0 0 339.4 57.1" style="enable-background:new 0 0 339.4 57.1;" xml:space="preserve">
<style type="text/css">
	.st0{fill:#111847;}
	.st1{fill:#3AA6CC;}
</style>
<g>
	<g>
		<g>
			<path class="st0" d="M65.2,17.9c0,1.6-0.6,3-1.7,4.2c-1.2,1.2-2.6,1.7-4.2,1.7h-12V4.5h12c1.6,0,3,0.6,4.2,1.7
				c1.2,1.2,1.7,2.6,1.7,4.2c0,1.2-0.5,2.4-1.6,3.7C64.6,15.5,65.2,16.7,65.2,17.9z M60.7,17.9c0-0.4-0.1-0.8-0.4-1.1
				s-0.7-0.4-1.1-0.4h-7.1l1.9-4.4h5.1c0.4,0,0.8-0.1,1.1-0.4c0.3-0.3,0.4-0.7,0.4-1.1c0-0.4-0.1-0.8-0.4-1.1
				c-0.3-0.3-0.7-0.4-1.1-0.4h-7.6v10.5h7.6c0.4,0,0.8-0.1,1.1-0.4S60.7,18.3,60.7,17.9z"/>
		</g>
		<g>
			<path class="st0" d="M84.2,14.2c0,2.6-0.9,4.9-2.6,6.8c-1.8,1.9-3.9,2.9-6.4,2.9c-2.5,0-4.7-1-6.4-2.9c-1.7-1.9-2.6-4.2-2.6-6.8
				V4.5h4.4v9.7c0,1.4,0.4,2.6,1.3,3.7c0.8,1.1,1.9,1.6,3.3,1.6c1.3,0,2.4-0.5,3.3-1.6c0.9-1.1,1.3-2.3,1.3-3.7V4.5h4.4V14.2z"/>
		</g>
		<g>
			<path class="st0" d="M103.3,17.9c0,1.6-0.6,3-1.7,4.2c-1.2,1.2-2.6,1.7-4.2,1.7h-12v-4.4h12c0.4,0,0.8-0.1,1.1-0.4
				s0.4-0.7,0.4-1.1c0-0.4-0.1-0.8-0.4-1.1s-0.7-0.4-1.1-0.4h-6.1c-1.6,0-3-0.6-4.2-1.7c-1.2-1.2-1.7-2.6-1.7-4.2s0.6-3,1.7-4.2
				c1.2-1.2,2.6-1.7,4.2-1.7h12v4.4h-12c-0.4,0-0.8,0.1-1.1,0.4c-0.3,0.3-0.4,0.7-0.4,1.1c0,0.4,0.1,0.8,0.4,1.1
				c0.3,0.3,0.7,0.4,1.1,0.4h6.1c1.6,0,3,0.6,4.2,1.7S103.3,16.3,103.3,17.9z"/>
		</g>
		<g>
			<path class="st0" d="M104.4,23.9V4.5h4.4v19.4H104.4z"/>
		</g>
		<g>
			<path class="st0" d="M126.3,23.9v-8.8l-4.6,8.8h-2.8l-4.6-8.8v8.8H110V4.5h4.4l5.9,11.9l5.9-11.9h4.4v19.4H126.3z"/>
		</g>
		<g>
			<path class="st0" d="M131.8,23.9V4.5h4.4v19.4H131.8z"/>
		</g>
		<g>
			<path class="st0" d="M151.2,23.9l-4.1-5.8l-4.1,5.8h-5.5l6.9-9.7l-6.9-9.7h5.5l4.1,5.8l4.1-5.8h5.5l-6.9,9.7l6.9,9.7H151.2z"/>
		</g>
		<g>
			<path class="st1" d="M175.9,8.9v14.9h-4.4V8.9h-6.8V4.5h18v4.4H175.9z"/>
		</g>
		<g>
			<path class="st1" d="M195.6,23.9l-6.9-7.5l1.9-4.4h5.1c0.4,0,0.8-0.1,1.1-0.4c0.3-0.3,0.4-0.7,0.4-1.1c0-0.4-0.1-0.8-0.4-1.1
				c-0.3-0.3-0.7-0.4-1.1-0.4h-7.6v14.9h-4.4V4.5h12c1.6,0,3,0.6,4.2,1.7c1.2,1.2,1.7,2.6,1.7,4.2s-0.6,3-1.7,4.2
				c-1.2,1.2-2.6,1.7-4.2,1.7h-1l6.9,7.5H195.6z"/>
		</g>
		<g>
			<path class="st1" d="M212.3,23.9l-1.9-4.4h6.3l-3.4-7.7l-5.4,12.2h-5v-4.4h2l6.6-14.9h3.6l8.6,19.4H212.3z"/>
		</g>
		<g>
			<path class="st1" d="M238.2,23.9l-9.1-11v11h-4.4V4.5h4.4l9.1,11v-11h4.4v19.4H238.2z"/>
		</g>
		<g>
			<path class="st1" d="M261.7,17.9c0,1.6-0.6,3-1.7,4.2c-1.2,1.2-2.6,1.7-4.2,1.7h-12v-4.4h12c0.4,0,0.8-0.1,1.1-0.4
				s0.4-0.7,0.4-1.1c0-0.4-0.1-0.8-0.4-1.1s-0.7-0.4-1.1-0.4h-6.1c-1.6,0-3-0.6-4.2-1.7c-1.2-1.2-1.7-2.6-1.7-4.2s0.6-3,1.7-4.2
				c1.2-1.2,2.6-1.7,4.2-1.7h12v4.4h-12c-0.4,0-0.8,0.1-1.1,0.4c-0.3,0.3-0.4,0.7-0.4,1.1c0,0.4,0.1,0.8,0.4,1.1
				c0.3,0.3,0.7,0.4,1.1,0.4h6.1c1.6,0,3,0.6,4.2,1.7S261.7,16.3,261.7,17.9z"/>
		</g>
		<g>
			<path class="st1" d="M280.8,10.5c0,1.6-0.6,3-1.7,4.2c-1.2,1.2-2.6,1.7-4.2,1.7h-7.1l1.9-4.4h5.1c0.4,0,0.8-0.1,1.1-0.4
				c0.3-0.3,0.4-0.7,0.4-1.1c0-0.4-0.1-0.8-0.4-1.1c-0.3-0.3-0.7-0.4-1.1-0.4h-7.6v14.9h-4.4V4.5h12c1.6,0,3,0.6,4.2,1.7
				C280.2,7.4,280.8,8.8,280.8,10.5z"/>
		</g>
		<g>
			<path class="st1" d="M301.3,14.2c0,2.7-0.9,5-2.8,6.9c-1.9,1.9-4.2,2.8-6.8,2.8c-2.7,0-5-0.9-6.9-2.8c-1.9-1.9-2.8-4.2-2.8-6.9
				s0.9-4.9,2.8-6.8c1.9-1.9,4.2-2.8,6.9-2.8c2.7,0,4.9,0.9,6.8,2.8C300.3,9.2,301.3,11.5,301.3,14.2z M296.9,14.2
				c0-1.4-0.5-2.7-1.5-3.7c-1-1-2.3-1.5-3.7-1.5c-1.4,0-2.7,0.5-3.7,1.5c-1,1-1.5,2.3-1.5,3.7c0,1.5,0.5,2.7,1.5,3.7
				c1,1,2.2,1.5,3.7,1.5c1.5,0,2.7-0.5,3.7-1.5C296.3,16.9,296.9,15.6,296.9,14.2z"/>
		</g>
		<g>
			<path class="st1" d="M314.2,23.9l-6.9-7.5l1.9-4.4h5.1c0.4,0,0.8-0.1,1.1-0.4c0.3-0.3,0.4-0.7,0.4-1.1c0-0.4-0.1-0.8-0.4-1.1
				c-0.3-0.3-0.7-0.4-1.1-0.4h-7.6v14.9h-4.4V4.5h12c1.6,0,3,0.6,4.2,1.7c1.2,1.2,1.7,2.6,1.7,4.2s-0.6,3-1.7,4.2
				c-1.2,1.2-2.6,1.7-4.2,1.7h-1l6.9,7.5H314.2z"/>
		</g>
		<g>
			<path class="st1" d="M332.7,8.9v14.9h-4.4V8.9h-6.8V4.5h18v4.4H332.7z"/>
		</g>
	</g>
	<g>
		<path class="st0" d="M54.7,33.6c0,0.7-0.3,1.3-0.8,1.8s-1.1,0.8-1.8,0.8h-5.2v-1.9h5.2c0.2,0,0.3-0.1,0.5-0.2s0.2-0.3,0.2-0.5
			c0-0.2-0.1-0.3-0.2-0.5S52.3,33,52.1,33h-2.6c-0.7,0-1.3-0.3-1.8-0.8c-0.5-0.5-0.8-1.1-0.8-1.8s0.3-1.3,0.8-1.8s1.1-0.8,1.8-0.8
			h5.2v1.9h-5.2c-0.2,0-0.3,0.1-0.5,0.2s-0.2,0.3-0.2,0.5c0,0.2,0.1,0.3,0.2,0.5s0.3,0.2,0.5,0.2h2.6c0.7,0,1.3,0.3,1.8,0.8
			C54.5,32.3,54.7,32.9,54.7,33.6z"/>
		<path class="st0" d="M56.9,36.2v-8.4h7.2v1.9h-5.3V31h4.1V33h-4.1v1.3h5.3v1.9H56.9z"/>
		<path class="st0" d="M71.4,36.2l-3-3.2l0.8-1.9h2.2c0.2,0,0.3-0.1,0.5-0.2s0.2-0.3,0.2-0.5c0-0.2-0.1-0.3-0.2-0.5
			s-0.3-0.2-0.5-0.2h-3.3v6.5h-1.9v-8.4h5.2c0.7,0,1.3,0.3,1.8,0.8s0.8,1.1,0.8,1.8s-0.3,1.3-0.8,1.8c-0.5,0.5-1.1,0.8-1.8,0.8H71
			l3,3.2H71.4z"/>
		<path class="st0" d="M80.9,36.2h-1.6l-3.7-8.4h2.2l2.3,5.3l2.3-5.3h2.2L80.9,36.2z"/>
		<path class="st0" d="M86.8,36.2v-8.4h1.9v8.4H86.8z"/>
		<path class="st0" d="M95,36.2c-1.2,0-2.2-0.4-3-1.2c-0.8-0.8-1.2-1.8-1.2-3c0-1.2,0.4-2.1,1.2-3c0.8-0.8,1.8-1.2,3-1.2h3v1.9h-3
			c-0.6,0-1.2,0.2-1.6,0.7c-0.4,0.4-0.7,1-0.7,1.6c0,0.6,0.2,1.2,0.7,1.6c0.4,0.4,1,0.7,1.6,0.7h3v1.9H95z"/>
		<path class="st0" d="M100.2,36.2v-8.4h1.9v8.4H100.2z"/>
		<path class="st0" d="M110.2,36.2l-4-4.8v4.8h-1.9v-8.4h1.9l4,4.8v-4.8h1.9v8.4H110.2z"/>
		<path class="st0" d="M118.4,36.2c-1.2,0-2.2-0.4-3-1.2c-0.8-0.8-1.2-1.8-1.2-3c0-1.2,0.4-2.1,1.2-3c0.8-0.8,1.8-1.2,3-1.2h4.2v1.9
			h-4.2c-0.6,0-1.2,0.2-1.6,0.7c-0.4,0.4-0.7,1-0.7,1.6c0,0.6,0.2,1.2,0.7,1.6c0.4,0.4,1,0.7,1.6,0.7h2.3V33h-1.2l-0.8-1.9h4v5.2
			H118.4z"/>
		<path class="st0" d="M134.3,29.7v6.5h-1.9v-6.5h-2.9v-1.9h7.8v1.9H134.3z"/>
		<path class="st0" d="M139.4,36.2v-8.4h1.9v8.4H139.4z M145.3,36.2V33h-3.7l0.8-1.9h2.9v-3.2h1.9v8.4H145.3z"/>
		<path class="st0" d="M149.4,36.2v-8.4h7.2v1.9h-5.3V31h4.1V33h-4.1v1.3h5.3v1.9H149.4z"/>
		<path class="st0" d="M163.4,36.2v-8.4h7.2v1.9h-5.3V31h4.1V33h-4.1v1.3h5.3v1.9H163.4z"/>
		<path class="st0" d="M175.1,36.2l-0.8-1.9h2.7l-1.5-3.4l-2.3,5.3H171v-1.9h0.9l2.9-6.5h1.6l3.7,8.4H175.1z"/>
		<path class="st0" d="M190,33.6c0,0.7-0.3,1.3-0.8,1.8s-1.1,0.8-1.8,0.8h-5.2v-1.9h5.2c0.2,0,0.3-0.1,0.5-0.2s0.2-0.3,0.2-0.5
			c0-0.2-0.1-0.3-0.2-0.5s-0.3-0.2-0.5-0.2h-2.6c-0.7,0-1.3-0.3-1.8-0.8c-0.5-0.5-0.8-1.1-0.8-1.8s0.3-1.3,0.8-1.8s1.1-0.8,1.8-0.8
			h5.2v1.9h-5.2c-0.2,0-0.3,0.1-0.5,0.2s-0.2,0.3-0.2,0.5c0,0.2,0.1,0.3,0.2,0.5s0.3,0.2,0.5,0.2h2.6c0.7,0,1.3,0.3,1.8,0.8
			C189.7,32.3,190,32.9,190,33.6z"/>
		<path class="st0" d="M195.8,29.7v6.5h-1.9v-6.5h-2.9v-1.9h7.8v1.9H195.8z"/>
		<path class="st0" d="M209.8,36.2c-1.2,0-2.2-0.4-3-1.2c-0.8-0.8-1.2-1.8-1.2-3c0-1.2,0.4-2.1,1.2-3c0.8-0.8,1.8-1.2,3-1.2h3v1.9
			h-3c-0.6,0-1.2,0.2-1.6,0.7c-0.4,0.4-0.7,1-0.7,1.6c0,0.6,0.2,1.2,0.7,1.6c0.4,0.4,1,0.7,1.6,0.7h3v1.9H209.8z"/>
		<path class="st0" d="M223.3,32c0,1.2-0.4,2.2-1.2,3c-0.8,0.8-1.8,1.2-3,1.2s-2.2-0.4-3-1.2c-0.8-0.8-1.2-1.8-1.2-3
			c0-1.2,0.4-2.1,1.2-3c0.8-0.8,1.8-1.2,3-1.2s2.1,0.4,3,1.2C222.9,29.9,223.3,30.8,223.3,32z M221.4,32c0-0.6-0.2-1.2-0.7-1.6
			c-0.4-0.4-1-0.7-1.6-0.7c-0.6,0-1.2,0.2-1.6,0.7c-0.4,0.4-0.7,1-0.7,1.6c0,0.6,0.2,1.2,0.7,1.6c0.4,0.4,1,0.7,1.6,0.7
			c0.6,0,1.2-0.2,1.6-0.7C221.2,33.2,221.4,32.6,221.4,32z"/>
		<path class="st0" d="M228.4,36.2l-0.8-1.9h2.7l-1.5-3.4l-2.3,5.3h-2.2v-1.9h0.9l2.9-6.5h1.6l3.7,8.4H228.4z"/>
		<path class="st0" d="M243.3,33.6c0,0.7-0.3,1.3-0.8,1.8s-1.1,0.8-1.8,0.8h-5.2v-1.9h5.2c0.2,0,0.3-0.1,0.5-0.2
			c0.1-0.1,0.2-0.3,0.2-0.5c0-0.2-0.1-0.3-0.2-0.5c-0.1-0.1-0.3-0.2-0.5-0.2h-2.6c-0.7,0-1.3-0.3-1.8-0.8c-0.5-0.5-0.8-1.1-0.8-1.8
			s0.3-1.3,0.8-1.8s1.1-0.8,1.8-0.8h5.2v1.9h-5.2c-0.2,0-0.3,0.1-0.5,0.2c-0.1,0.1-0.2,0.3-0.2,0.5c0,0.2,0.1,0.3,0.2,0.5
			c0.1,0.1,0.3,0.2,0.5,0.2h2.6c0.7,0,1.3,0.3,1.8,0.8C243,32.3,243.3,32.9,243.3,33.6z"/>
		<path class="st0" d="M249.1,29.7v6.5h-1.9v-6.5h-2.9v-1.9h7.8v1.9H249.1z"/>
	</g>
</g>
<g>
	<path class="st1" d="M37.1,8.6c-2-2.1-4.5-3.9-7.1-5c-2.7-1.1-5.6-1.7-8.4-1.5c5.7,0.2,11,3.3,14.4,7.6c3.4,4.3,5,9.9,4.7,15.2
		c-0.3,5.3-2.4,10.5-5.9,14.2c-2.5,2.7-5.8,4.5-9.2,5.2l1.7-4L9.5,47.7l17.7,7.5l-2-4.7c2-0.4,4-1.2,5.8-2.1
		c2.9-1.5,5.4-3.7,7.3-6.1c3.9-5,5.8-11.2,5.5-17.3C43.5,18.8,41.2,12.9,37.1,8.6z"/>
	<g>
		<g>
			<path class="st1" d="M31.1,28.4c0,2.7-1,5.1-2.9,7c-1.9,1.9-4.3,2.9-7,2.9H1V6h20.1c2.7,0,5.1,1,7,2.9c1.9,1.9,2.9,4.3,2.9,7
				c0,2-0.9,4.1-2.7,6.3C30.2,24.4,31.1,26.4,31.1,28.4z M23.7,28.4c0-0.7-0.2-1.3-0.7-1.8c-0.5-0.5-1.1-0.7-1.8-0.7H9.3l3.2-7.4
				h8.6c0.7,0,1.3-0.2,1.8-0.7c0.5-0.5,0.7-1.1,0.7-1.8c0-0.7-0.2-1.3-0.7-1.8c-0.5-0.5-1.1-0.7-1.8-0.7H8.4V31h12.7
				c0.7,0,1.3-0.2,1.8-0.7C23.4,29.8,23.7,29.2,23.7,28.4z"/>
		</g>
		<g>
			<path class="st0" d="M31.1,28.4c0,2.7-1,5.1-2.9,7c-1.9,1.9-4.3,2.9-7,2.9H1V6h20.1c2.7,0,5.1,1,7,2.9c1.9,1.9,2.9,4.3,2.9,7
				c0,2-0.9,4.1-2.7,6.3C30.2,24.4,31.1,26.4,31.1,28.4z M27.9,28.4c0-1.4-0.4-2.7-1.2-3.8c-0.8-1.1-1.8-2-3.1-2.5
				c1.3-0.5,2.3-1.3,3.1-2.5c0.8-1.1,1.2-2.4,1.2-3.8c0-1.9-0.7-3.4-2-4.7c-1.3-1.3-2.9-2-4.7-2H4.2v25.9h16.9
				c1.9,0,3.4-0.6,4.7-1.9C27.2,31.9,27.9,30.3,27.9,28.4z M26.9,28.4c0,1.6-0.6,3-1.7,4.1c-1.1,1.1-2.5,1.7-4.1,1.7h-16V10.1h16
				c1.6,0,3,0.6,4.1,1.7c1.1,1.1,1.7,2.5,1.7,4.1c0,1.6-0.6,3-1.7,4.1c-1.1,1.1-2.5,1.7-4.1,1.7h-10l1.4-3.2h8.6
				c0.7,0,1.3-0.2,1.8-0.7c0.5-0.5,0.7-1.1,0.7-1.8c0-0.7-0.2-1.3-0.7-1.8c-0.5-0.5-1.1-0.7-1.8-0.7H8.4V31h12.7
				c0.7,0,1.3-0.2,1.8-0.7c0.5-0.5,0.7-1.1,0.7-1.8c0-0.7-0.2-1.3-0.7-1.8c-0.5-0.5-1.1-0.7-1.8-0.7H9.3l1.4-3.2h10.4
				c1.6,0,3,0.6,4.1,1.7C26.4,25.5,26.9,26.8,26.9,28.4z"/>
		</g>
	</g>
</g>
</svg>
