<?xml version="1.0" encoding="utf-8"?>
<!-- Generator: Adobe Illustrator 22.1.0, SVG Export Plug-In . SVG Version: 6.00 Build 0)  -->
<svg version="1.1" id="Layer_1" xmlns="http://www.w3.org/2000/svg" xmlns:xlink="http://www.w3.org/1999/xlink" x="0px" y="0px"
	 viewBox="0 0 103 103" style="enable-background:new 0 0 103 103;" xml:space="preserve">
<style type="text/css">
	.st0{fill:#3AA6CC;}
	.st1{fill:#EAEA2D;}
</style>
<g>
	<g>
		<path class="st0" d="M51.5,103C23.1,103,0,79.9,0,51.5C0,23.1,23.1,0,51.5,0S103,23.1,103,51.5C103,79.9,79.9,103,51.5,103z
			 M51.5,5C25.9,5,5,25.9,5,51.5C5,77.1,25.9,98,51.5,98S98,77.1,98,51.5C98,25.9,77.1,5,51.5,5z"/>
	</g>
	<g>
		<g>
			<g>
				<g>
					<path class="st0" d="M51.5,17.5c-7.9,0-14.3,8.1-14.3,18c0,0.7,0,1.4,0.1,2.1h1.6c-0.1-0.7-0.1-1.4-0.1-2.1
						c0-9,5.7-16.4,12.7-16.4s12.7,7.4,12.7,16.4c0,0.7,0,1.4-0.1,2.1h1.6c0.1-0.7,0.1-1.4,0.1-2.1C65.8,25.6,59.4,17.5,51.5,17.5z"
						/>
				</g>
			</g>
			<g>
				<path class="st1" d="M62.3,35.8c0,4.3-1.4,8.2-3.6,10.8c-1.9,2.3-4.4,3.7-7.2,3.7c-2.8,0-5.3-1.4-7.2-3.7
					c-2.2-2.7-3.6-6.5-3.6-10.8c0-8,4.9-14.5,10.8-14.5S62.3,27.7,62.3,35.8z"/>
			</g>
			<g>
				<path class="st0" d="M38.7,40.2L38.7,40.2c-1,0-1.9-0.8-1.9-1.9v-6.3c0-1,0.8-1.9,1.9-1.9h0c1,0,1.9,0.8,1.9,1.9v6.3
					C40.6,39.4,39.7,40.2,38.7,40.2z"/>
			</g>
			<g>
				<path class="st0" d="M51.7,46c-7,0-11.6-1.3-13.4-3.9c-1.1-1.5-1-3.1-0.7-3.7l1.9,0.6c0,0-0.3,1,0.5,2c0.8,1.1,3.5,3,11.8,3V46z
					"/>
			</g>
			<g>
				<path class="st0" d="M53.3,46.1H49c-0.6,0-1.1-0.5-1.1-1.1l0,0c0-0.6,0.5-1.1,1.1-1.1h4.2c0.6,0,1.1,0.5,1.1,1.1l0,0
					C54.3,45.6,53.8,46.1,53.3,46.1z"/>
			</g>
		</g>
		<g>
			<g>
				<path class="st0" d="M61.5,47.2c-2.5,2.5-6.1,4.1-10,4.1s-7.6-1.6-10-4.1c-3.1,0.9-5.3,3.1-5.3,5.6v7.9c0,1.8,1.2,3.5,3,4.6v8.6
					c0,0.7,0.6,1.3,1.3,1.3c0.7,0,1.3-0.6,1.3-1.3v-3.7c0,0.7,0.6,1.3,1.3,1.3s1.3-0.6,1.3-1.3v6.3c0,0.7,0.6,1.3,1.3,1.3
					s1.3-0.6,1.3-1.3v-2.1c0.2,0.2,0.5,0.3,0.8,0.3c0.7,0,1.3-0.6,1.3-1.3v-3.7c0,0.7,0.6,1.3,1.3,1.3s1.3-0.6,1.3-1.3v3.7
					c0,0.7,0.6,1.3,1.3,1.3c0.7,0,1.3-0.6,1.3-1.3v-3.2c0,0.7,0.6,1.3,1.3,1.3c0.7,0,1.3-0.6,1.3-1.3v6.3c0,0.7,0.6,1.3,1.3,1.3
					s1.3-0.6,1.3-1.3v-3.2c0,0.7,0.6,1.3,1.3,1.3s1.3-0.6,1.3-1.3v-7.4c2.6-1,4.4-3,4.4-5.3v-7.9C66.8,50.3,64.6,48.1,61.5,47.2z"/>
			</g>
			<g>
				<path class="st1" d="M50.5,80.4L50.5,80.4c-0.7,0-1.3-0.6-1.3-1.3v-1.6c0-0.7,0.6-1.3,1.3-1.3h0c0.7,0,1.3,0.6,1.3,1.3v1.6
					C51.9,79.8,51.3,80.4,50.5,80.4z"/>
			</g>
			<g>
				<path class="st1" d="M55.8,83.6L55.8,83.6c-0.7,0-1.3-0.6-1.3-1.3v-3.7c0-0.7,0.6-1.3,1.3-1.3h0c0.7,0,1.3,0.6,1.3,1.3v3.7
					C57.1,83,56.5,83.6,55.8,83.6z"/>
			</g>
			<g>
				<path class="st0" d="M61.4,82.5L61.4,82.5c-0.6,0-1.1-0.5-1.1-1.1v-2.6c0-0.6,0.5-1.1,1.1-1.1h0c0.6,0,1.1,0.5,1.1,1.1v2.6
					C62.4,82.1,62,82.5,61.4,82.5z"/>
			</g>
		</g>
	</g>
</g>
</svg>
