<?xml version="1.0" encoding="utf-8"?>
<!-- Generator: Adobe Illustrator 22.1.0, SVG Export Plug-In . SVG Version: 6.00 Build 0)  -->
<svg version="1.1" id="Layer_1" xmlns="http://www.w3.org/2000/svg" xmlns:xlink="http://www.w3.org/1999/xlink" x="0px" y="0px"
	 viewBox="0 0 103 103" style="enable-background:new 0 0 103 103;" xml:space="preserve">
<style type="text/css">
	.st0{fill:#3AA6CC;}
	.st1{fill:#EAEA2D;}
</style>
<g>
	<g>
		<path class="st0" d="M51.5,103C23.1,103,0,79.9,0,51.5S23.1,0,51.5,0S103,23.1,103,51.5S79.9,103,51.5,103z M51.5,5
			C25.9,5,5,25.9,5,51.5S25.9,98,51.5,98S98,77.1,98,51.5S77.1,5,51.5,5z"/>
	</g>
	<g>
		<g>
			<g>
				<path class="st0" d="M67,38.1l1-3.5l3-10.7c0.1-0.3,0.1-0.5,0.1-0.8c0.1-2.1-1.9-3.8-4.1-3.3l-14.3,3.7
					c-2.5,0.6-3.3,3.7-1.5,5.5l0.4,0.4l-1.9,1.9L37.6,43.4c-0.6,0.6-0.8,1.5-0.4,1.9c0.4,0.4,1.3,0.2,1.9-0.4l-5.6,5.6
					c-0.6,0.6-0.8,1.5-0.4,1.9c0.4,0.4,1.3,0.2,1.9-0.4l8.4-8.4c-0.6,0.6-0.8,1.5-0.4,1.9c0.4,0.4,1.3,0.2,1.9-0.4l-4.2,4.2
					c-0.6,0.6-0.8,1.5-0.4,1.9c0.4,0.4,1.3,0.2,1.9-0.4l2.5-2.5c-0.1,0.4,0.1,0.8,0.4,1.1c0.5,0.5,1.4,0.5,1.9,0l-2.1,2.1
					c-0.4,0.4-0.4,1,0,1.4c0.4,0.4,1,0.4,1.4,0l2.3-2.3c0.4-0.4,0.4-1,0-1.4c-0.4-0.4-1-0.4-1.4,0l2.8-2.8c-0.4,0.4-0.4,1,0,1.4
					s1,0.4,1.4,0l9.1-9.1l1.1,1.1c0.3,0.3,0.6,0.5,0.9,0.7C64.1,41.1,66.4,40.2,67,38.1z"/>
			</g>
			<g>
				<path class="st0" d="M39,51.8c-0.4-0.4-1-0.4-1.4,0l-3.3,3.3c-0.4,0.4-0.4,1,0,1.4s1,0.4,1.4,0l3.3-3.3
					C39.4,52.9,39.4,52.2,39,51.8z"/>
			</g>
			<g>
				<path class="st0" d="M42.8,54.6c-0.4-0.4-1-0.4-1.4,0L40,56c-0.4,0.4-0.4,1,0,1.4c0.4,0.4,1,0.4,1.4,0l1.4-1.4
					C43.2,55.7,43.2,55,42.8,54.6z"/>
			</g>
		</g>
		<g>
			<g>
				<path class="st1" d="M49.8,77.7l-3.5,1l-10.7,3c-0.3,0.1-0.5,0.1-0.8,0.1c-2.1,0.1-3.8-1.9-3.3-4.1l3.7-14.3
					c0.6-2.5,3.7-3.3,5.5-1.5l0.4,0.4l1.9-1.9l11.9-11.9c0.6-0.6,1.5-0.8,1.9-0.4c0.4,0.4,0.2,1.3-0.4,1.9l5.6-5.6
					c0.6-0.6,1.5-0.8,1.9-0.4c0.4,0.4,0.2,1.3-0.4,1.9l-8.4,8.4c0.6-0.6,1.5-0.8,1.9-0.4c0.4,0.4,0.2,1.3-0.4,1.9l4.2-4.2
					c0.6-0.6,1.5-0.8,1.9-0.4c0.4,0.4,0.2,1.3-0.4,1.9l-2.5,2.5c0.4-0.1,0.8,0.1,1.1,0.4c0.5,0.5,0.5,1.4,0,1.9l2.1-2.1
					c0.4-0.4,1-0.4,1.4,0c0.4,0.4,0.4,1,0,1.4l-2.3,2.3c-0.4,0.4-1,0.4-1.4,0c-0.4-0.4-0.4-1,0-1.4l-2.8,2.8c0.4-0.4,1-0.4,1.4,0
					c0.4,0.4,0.4,1,0,1.4l-9.1,9.1l1.1,1.1c0.3,0.3,0.5,0.6,0.7,0.9C52.8,74.9,51.9,77.2,49.8,77.7z"/>
			</g>
			<g>
				<path class="st1" d="M63.5,49.8c-0.4-0.4-0.4-1,0-1.4l3.3-3.3c0.4-0.4,1-0.4,1.4,0c0.4,0.4,0.4,1,0,1.4l-3.3,3.3
					C64.6,50.2,63.9,50.2,63.5,49.8z"/>
			</g>
			<g>
				<path class="st1" d="M66.4,53.5c-0.4-0.4-0.4-1,0-1.4l1.4-1.4c0.4-0.4,1-0.4,1.4,0c0.4,0.4,0.4,1,0,1.4l-1.4,1.4
					C67.4,53.9,66.7,53.9,66.4,53.5z"/>
			</g>
		</g>
	</g>
</g>
</svg>
