<?xml version="1.0" encoding="utf-8"?>
<!-- Generator: Adobe Illustrator 22.1.0, SVG Export Plug-In . SVG Version: 6.00 Build 0)  -->
<svg version="1.1" id="Layer_1" xmlns="http://www.w3.org/2000/svg" xmlns:xlink="http://www.w3.org/1999/xlink" x="0px" y="0px"
	 viewBox="0 0 103 103" style="enable-background:new 0 0 103 103;" xml:space="preserve">
<style type="text/css">
	.st0{fill:#EAEA2D;}
	.st1{fill:#3AA6CC;}
</style>
<g>
	<g>
		<path class="st0" d="M31.8,45.2h-8.1c-3.2,0-5.8,2.6-5.8,5.8v12.3c0,1.2,1,2.3,2.3,2.3h1.6c0.7-2.1,2.7-3.6,5.1-3.6
			c2.3,0,4.3,1.5,5,3.6c1.1-0.1,1.9-1,1.9-2V47.2C33.9,46.1,33,45.2,31.8,45.2z M29.1,54.8c0,0.6-0.5,1.1-1.1,1.1h-6.8
			c-0.3,0-0.5-0.2-0.5-0.5v-4.6c0-1.8,1.5-3.2,3.2-3.2h4c0.6,0,1.1,0.5,1.1,1.1V54.8z"/>
	</g>
	<g>
		<circle class="st1" cx="26.9" cy="67.2" r="4.2"/>
	</g>
	<g>
		<path class="st1" d="M67.9,55.5h-5.2c0.5,0,0.9-0.2,1.3-0.5c0.3-0.3,0.5-0.8,0.5-1.3c0-1-0.8-1.8-1.8-1.8h-4
			c0.1,0,0.1-0.1,0.1-0.1c0.3-0.3,0.5-0.8,0.5-1.3c0-1-0.8-1.8-1.8-1.8h11.5c0.5,0,0.9-0.2,1.3-0.5c0.3-0.3,0.5-0.8,0.5-1.3
			c0-1-0.8-1.8-1.8-1.8h-6.4c0.5,0,0.9-0.2,1.3-0.5c0.3-0.3,0.5-0.8,0.5-1.3c0-1-0.8-1.8-1.8-1.8h4c0.5,0,0.9-0.2,1.3-0.5
			c0.3-0.3,0.5-0.8,0.5-1.3c0-1-0.8-1.8-1.8-1.8H37c-1.1,0-1.9,0.9-1.9,1.9v23.2c0,1.1,0.9,1.9,1.9,1.9h22.9c0.5,0,0.9-0.2,1.3-0.5
			c0.3-0.3,0.5-0.8,0.5-1.3c0-0.2,0-0.4-0.1-0.6h2.7c0.5,0,0.9-0.2,1.3-0.5c0.3-0.3,0.5-0.8,0.5-1.3c0-1-0.8-1.8-1.8-1.8h3.6
			c0.5,0,0.9-0.2,1.3-0.5c0.3-0.3,0.5-0.8,0.5-1.3C69.7,56.3,68.9,55.5,67.9,55.5z"/>
	</g>
	<g>
		<path class="st0" d="M72.6,41.6h1.2c0.5,0,0.9-0.2,1.3-0.5c0.3-0.3,0.5-0.8,0.5-1.3c0-1-0.8-1.8-1.8-1.8h-1.2
			c-0.5,0-0.9,0.2-1.3,0.5c-0.3,0.3-0.5,0.8-0.5,1.3C70.9,40.8,71.7,41.6,72.6,41.6z"/>
	</g>
	<g>
		<path class="st1" d="M78.2,45.2h-4.4c-0.5,0-0.9,0.2-1.3,0.5c-0.3,0.3-0.5,0.8-0.5,1.3c0,1,0.8,1.8,1.8,1.8h4.4
			c0.5,0,0.9-0.2,1.3-0.5c0.3-0.3,0.5-0.8,0.5-1.3C80,46,79.2,45.2,78.2,45.2z"/>
	</g>
	<g>
		<path class="st0" d="M75.1,55c0.3-0.3,0.5-0.8,0.5-1.3c0-1-0.8-1.8-1.8-1.8h-6c-0.5,0-0.9,0.2-1.3,0.5c-0.3,0.3-0.5,0.8-0.5,1.3
			c0,1,0.8,1.8,1.8,1.8h6C74.3,55.5,74.8,55.3,75.1,55z"/>
	</g>
	<g>
		<path class="st1" d="M75.4,59.1h-2.8c-0.5,0-0.9,0.2-1.3,0.5c-0.3,0.3-0.5,0.8-0.5,1.3c0,1,0.8,1.8,1.8,1.8h2.8
			c0.5,0,0.9-0.2,1.3-0.5c0.3-0.3,0.5-0.8,0.5-1.3C77.2,59.9,76.4,59.1,75.4,59.1z"/>
	</g>
</g>
<g>
	<path class="st1" d="M51.5,103C23.1,103,0,79.9,0,51.5S23.1,0,51.5,0S103,23.1,103,51.5S79.9,103,51.5,103z M51.5,5
		C25.9,5,5,25.9,5,51.5S25.9,98,51.5,98S98,77.1,98,51.5S77.1,5,51.5,5z"/>
</g>
</svg>
