<?xml version="1.0" encoding="utf-8"?>
<!-- Generator: Adobe Illustrator 22.1.0, SVG Export Plug-In . SVG Version: 6.00 Build 0)  -->
<svg version="1.1" id="Layer_1" xmlns="http://www.w3.org/2000/svg" xmlns:xlink="http://www.w3.org/1999/xlink" x="0px" y="0px"
	 viewBox="0 0 916.4 245.7" style="enable-background:new 0 0 916.4 245.7;" xml:space="preserve">
<style type="text/css">
	.st0{fill:#3AA6CC;}
	.st1{fill:#FFFFFF;}
</style>
<g>
	<path class="st0" d="M48.8,36.4c0,4.5-1.6,8.3-4.7,11.4s-7,4.7-11.4,4.7H0V0h32.6c4.4,0,8.3,1.6,11.4,4.7s4.7,7,4.7,11.4
		c0,3.3-1.5,6.6-4.4,10.1C47.3,29.8,48.8,33.1,48.8,36.4z M36.8,36.4c0-1.1-0.4-2.1-1.2-2.9c-0.8-0.8-1.8-1.2-2.9-1.2H13.5l5.3-12
		h13.9c1.1,0,2.1-0.4,2.9-1.2c0.8-0.8,1.2-1.8,1.2-2.9c0-1.1-0.4-2.1-1.2-2.9c-0.8-0.8-1.8-1.2-2.9-1.2H12v28.5h20.6
		c1.1,0,2.1-0.4,2.9-1.2C36.3,38.5,36.8,37.5,36.8,36.4z"/>
	<path class="st0" d="M100.5,26.3c0,7.2-2.4,13.3-7,18.5c-4.8,5.2-10.5,7.8-17.3,7.8c-6.9,0-12.7-2.6-17.4-7.8
		c-4.6-5.1-7-11.3-7-18.5V0h12v26.3c0,3.8,1.2,7.1,3.5,10c2.3,2.9,5.3,4.3,8.9,4.3c3.5,0,6.5-1.4,8.9-4.3c2.3-2.9,3.5-6.2,3.5-10V0
		h12V26.3z"/>
	<path class="st0" d="M152.2,36.4c0,4.5-1.6,8.3-4.7,11.4s-7,4.7-11.4,4.7h-32.6v-12h32.6c1.1,0,2.1-0.4,2.9-1.2
		c0.8-0.8,1.2-1.8,1.2-2.9c0-1.1-0.4-2.1-1.2-2.9c-0.8-0.8-1.8-1.2-2.9-1.2h-16.5c-4.5,0-8.3-1.6-11.4-4.7s-4.7-6.9-4.7-11.4
		c0-4.4,1.6-8.3,4.7-11.4S115.2,0,119.6,0h32.6L147,12h-27.4c-1.2,0-2.1,0.4-2.9,1.2c-0.8,0.8-1.2,1.8-1.2,2.9
		c0,1.2,0.4,2.1,1.2,2.9c0.8,0.8,1.8,1.2,2.9,1.2h16.5c4.4,0,8.3,1.6,11.4,4.7S152.2,31.9,152.2,36.4z"/>
	<path class="st0" d="M155.2,52.5V0h12v52.5H155.2z"/>
	<path class="st0" d="M214.5,52.5V28.7l-12.4,23.8h-7.5l-12.4-23.8v23.8h-12V0h12l16.1,32.3L214.5,0h12v52.5H214.5z"/>
	<path class="st0" d="M229.5,52.5V0h12v52.5H229.5z"/>
	<path class="st0" d="M282,52.5l-11.3-15.8l-11.3,15.8h-15l18.8-26.3L244.5,0h15l11.3,15.8L282,0h15l-18.8,26.3L297,52.5H282z"/>
</g>
<g>
	<path class="st1" d="M349.1,12v40.5h-12V12h-18.4V0h48.8v12H349.1z"/>
	<path class="st1" d="M402.6,52.5L384,32.3l5.3-12h13.9c1.1,0,2.1-0.4,2.9-1.2c0.8-0.8,1.2-1.8,1.2-2.9c0-1.1-0.4-2.1-1.2-2.9
		c-0.8-0.8-1.8-1.2-2.9-1.2h-20.6v40.5h-12V0h32.6c4.4,0,8.3,1.6,11.4,4.7c3.2,3.1,4.7,7,4.7,11.4c0,4.5-1.6,8.3-4.7,11.4
		c-3.1,3.1-6.9,4.7-11.4,4.7h-2.7l18.8,20.3H402.6z"/>
	<path class="st1" d="M447.7,52.5l-5.3-12h17.2l-9.3-21l-14.6,33h-13.5L445.5,0h9.8l23.3,52.5H447.7z"/>
	<path class="st1" d="M518.2,52.5l-24.8-29.8v29.8h-12V0h12l24.8,29.8V0h12v52.5H518.2z"/>
	<path class="st1" d="M582,36.4c0,4.5-1.6,8.3-4.7,11.4c-3.2,3.1-7,4.7-11.4,4.7h-32.6v-12h32.6c1.1,0,2.1-0.4,2.9-1.2
		c0.8-0.8,1.2-1.8,1.2-2.9c0-1.1-0.4-2.1-1.2-2.9c-0.8-0.8-1.8-1.2-2.9-1.2h-16.5c-4.5,0-8.3-1.6-11.4-4.7
		c-3.1-3.1-4.7-6.9-4.7-11.4c0-4.4,1.6-8.3,4.7-11.4c3.2-3.1,6.9-4.7,11.4-4.7H582l-5.3,12h-27.4c-1.2,0-2.1,0.4-2.9,1.2
		c-0.8,0.8-1.2,1.8-1.2,2.9c0,1.2,0.4,2.1,1.2,2.9c0.8,0.8,1.8,1.2,2.9,1.2h16.5c4.4,0,8.3,1.6,11.4,4.7
		C580.4,28.1,582,31.9,582,36.4z"/>
	<path class="st1" d="M633.7,16.1c0,4.5-1.6,8.3-4.7,11.4c-3.2,3.1-7,4.7-11.4,4.7h-19.1l5.3-12h13.9c1.1,0,2.1-0.4,2.9-1.2
		c0.8-0.8,1.2-1.8,1.2-2.9c0-1.1-0.4-2.1-1.2-2.9c-0.8-0.8-1.8-1.2-2.9-1.2H597v40.5h-12V0h32.6c4.4,0,8.3,1.6,11.4,4.7
		C632.2,7.9,633.7,11.7,633.7,16.1z"/>
	<path class="st1" d="M689.2,26.3c0,7.3-2.6,13.5-7.7,18.6c-5.1,5.1-11.3,7.6-18.5,7.6c-7.3,0-13.5-2.5-18.6-7.6
		c-5.1-5.1-7.7-11.3-7.7-18.6c0-7.2,2.5-13.4,7.7-18.5C649.5,2.6,655.7,0,663,0c7.2,0,13.4,2.6,18.5,7.7
		C686.7,12.8,689.2,19,689.2,26.3z M677.2,26.3c0-3.9-1.4-7.2-4.2-10c-2.8-2.8-6.1-4.2-10-4.2s-7.3,1.4-10,4.2
		c-2.8,2.8-4.2,6.1-4.2,10c0,4,1.4,7.3,4.2,10.1c2.7,2.8,6.1,4.1,10,4.1c3.9,0,7.3-1.4,10-4.1C675.8,33.6,677.2,30.2,677.2,26.3z"/>
	<path class="st1" d="M724.3,52.5l-18.6-20.3l5.3-12h13.9c1.1,0,2.1-0.4,2.9-1.2c0.8-0.8,1.2-1.8,1.2-2.9c0-1.1-0.4-2.1-1.2-2.9
		c-0.8-0.8-1.8-1.2-2.9-1.2h-20.6v40.5h-12V0h32.6c4.4,0,8.3,1.6,11.4,4.7c3.1,3.1,4.7,7,4.7,11.4c0,4.5-1.6,8.3-4.7,11.4
		c-3.2,3.1-7,4.7-11.4,4.7h-2.7L741,52.5H724.3z"/>
	<path class="st1" d="M787.5,12h-13.1v40.5h-12V12H744V0h48.8L787.5,12z"/>
	<path class="st1" d="M795.7,52.5V0h12v52.5H795.7z"/>
	<path class="st1" d="M847.5,52.5l-24.8-29.8v29.8h-12V0h12l24.8,29.8V0h12v52.5H847.5z"/>
	<path class="st1" d="M888.7,52.5c-7.3,0-13.5-2.5-18.6-7.6c-5.1-5.1-7.7-11.3-7.7-18.6c0-7.2,2.5-13.4,7.7-18.5
		c5.1-5.1,11.3-7.7,18.6-7.7h22.5L906,12h-17.3c-4,0-7.3,1.4-10.1,4.2c-2.8,2.8-4.1,6.1-4.1,10c0,4,1.4,7.4,4.1,10.1
		c2.7,2.8,6.1,4.1,10.1,4.1h10.5v-8.3h-12.8l5.3-12h19.5v32.3H888.7z"/>
</g>
<path class="st0" d="M536.7,138.9l-23.8-28.6v28.6h-11.5V88.5h11.5l23.8,28.6V88.5h11.5v50.4H536.7z"/>
<g>
	<path class="st1" d="M0,138.9V88.5h11.5v38.9h31.7v11.5H0z"/>
	<path class="st1" d="M96.5,113.7c0,7-2.5,12.9-7.4,17.9c-4.9,4.9-10.8,7.3-17.8,7.3c-7,0-12.9-2.4-17.9-7.3
		c-4.9-4.9-7.3-10.9-7.3-17.9c0-7,2.4-12.9,7.3-17.8c4.9-4.9,10.9-7.4,17.9-7.4c7,0,12.9,2.5,17.8,7.4
		C94,100.8,96.5,106.7,96.5,113.7z M85,113.7c0-3.7-1.3-7-4-9.6c-2.7-2.7-5.9-4-9.6-4c-3.7,0-7,1.3-9.6,4c-2.7,2.7-4,5.9-4,9.6
		c0,3.8,1.3,7,4,9.7c2.6,2.6,5.9,4,9.6,4c3.8,0,7-1.3,9.6-4C83.6,120.7,85,117.5,85,113.7z"/>
	<path class="st1" d="M116.9,138.9l-5-11.5h16.5l-8.9-20.2l-14,31.7h-13l22.3-50.4h9.4l22.3,50.4H116.9z"/>
	<path class="st1" d="M196.1,113.7c0,7-2.5,12.9-7.4,17.9c-4.9,4.9-10.8,7.3-17.8,7.3h-21.6V88.5h21.6c7,0,12.9,2.5,17.8,7.4
		C193.7,100.8,196.1,106.7,196.1,113.7z M184.6,113.7c0-3.7-1.3-7-4-9.6c-2.7-2.7-5.9-4-9.6-4h-10.1v27.4h10.1c3.8,0,7-1.3,9.6-4
		C183.3,120.7,184.6,117.5,184.6,113.7z"/>
	<path class="st1" d="M267.4,113.7c0,7-2.5,12.9-7.4,17.9c-4.9,4.9-10.8,7.3-17.8,7.3c-7,0-12.9-2.4-17.9-7.3
		c-4.9-4.9-7.3-10.9-7.3-17.9c0-7,2.4-12.9,7.3-17.8c4.9-4.9,10.9-7.4,17.9-7.4c7,0,12.9,2.5,17.8,7.4
		C264.9,100.8,267.4,106.7,267.4,113.7z M255.9,113.7c0-3.7-1.3-7-4-9.6c-2.7-2.7-5.9-4-9.6-4c-3.7,0-7,1.3-9.6,4
		c-2.7,2.7-4,5.9-4,9.6c0,3.8,1.3,7,4,9.7c2.6,2.6,5.9,4,9.6,4c3.8,0,7-1.3,9.6-4C254.5,120.7,255.9,117.5,255.9,113.7z"/>
	<path class="st1" d="M305.6,138.9l-23.8-28.6v28.6h-11.5V88.5h11.5l23.8,28.6V88.5h11.5v50.4H305.6z"/>
	<path class="st1" d="M379.7,100h-12.6v38.9h-11.5V100H338V88.5h46.8L379.7,100z"/>
	<path class="st1" d="M387.6,138.9V88.5h11.5v50.4H387.6z M422.9,138.9v-19.4h-22.3l5-11.5h17.3V88.5h11.5v50.4H422.9z"/>
	<path class="st1" d="M437.3,138.9V88.5h43.2l-5,11.5h-26.6v7.9h24.5v11.5h-24.5v7.9h31.7v11.5H437.3z"/>
	<path class="st1" d="M605.1,138.9V88.5h11.5v50.4H605.1z M640.4,138.9v-19.4H618l5-11.5h17.3V88.5h11.5v50.4H640.4z"/>
	<path class="st1" d="M654.8,138.9V88.5h11.5v50.4H654.8z"/>
	<path class="st1" d="M694.4,138.9c-7,0-12.9-2.4-17.9-7.3c-4.9-4.9-7.3-10.9-7.3-17.9c0-7,2.4-12.9,7.3-17.8
		c4.9-4.9,10.9-7.4,17.9-7.4H716l-5,11.5h-16.6c-3.8,0-7,1.3-9.7,4c-2.6,2.6-4,5.9-4,9.6c0,3.8,1.3,7.1,4,9.7c2.6,2.6,5.9,4,9.7,4
		h10.1v-7.9h-12.2l5-11.5H716v31H694.4z"/>
	<path class="st1" d="M718.8,138.9V88.5h11.5v50.4H718.8z M754.1,138.9v-19.4h-22.3l5-11.5h17.3V88.5h11.5v50.4H754.1z"/>
	<path class="st1" d="M821.8,138.9h-9.4l-6.1-13.8l-6.1,13.8h-9.4l-22.3-50.4h13l14,31.7l4.3-9.7l-9.7-22h13l3.2,7.3l3.2-7.3h13
		l-9.7,22l4.3,9.7l14-31.7h13L821.8,138.9z"/>
	<path class="st1" d="M851.1,138.9l-5-11.5h16.5l-8.9-20.2l-14,31.7h-13l22.3-50.4h9.4l22.3,50.4H851.1z"/>
	<path class="st1" d="M896.5,115.5v23.4h-11.5v-23.4l-19.4-27h14.4l10.8,15.1l10.8-15.1h14.4L896.5,115.5z"/>
	<path class="st1" d="M30.3,245.7L24,231.5h20.4l-11-24.9L16,245.7H0l27.6-62.3h11.6l27.6,62.3H30.3z"/>
	<path class="st1" d="M128.2,226.6c0,5.3-1.9,9.8-5.6,13.5c-3.7,3.7-8.2,5.6-13.5,5.6H70.3v-14.2H109c1.4,0,2.5-0.5,3.5-1.4
		c0.9-0.9,1.4-2.1,1.4-3.5c0-1.4-0.5-2.5-1.4-3.5c-0.9-0.9-2.1-1.4-3.5-1.4H89.4c-5.3,0-9.8-1.9-13.5-5.6c-3.7-3.7-5.6-8.2-5.6-13.5
		c0-5.3,1.9-9.8,5.6-13.5c3.7-3.7,8.2-5.6,13.5-5.6h38.7l-6.2,14.2H89.4c-1.4,0-2.5,0.5-3.5,1.4c-0.9,1-1.4,2.1-1.4,3.5
		c0,1.4,0.5,2.5,1.4,3.5c0.9,0.9,2.1,1.4,3.5,1.4H109c5.3,0,9.8,1.9,13.5,5.6C126.3,216.8,128.2,221.3,128.2,226.6z"/>
	<path class="st1" d="M154,245.7v-62.3h14.2v62.3H154z"/>
	<path class="st1" d="M223.4,197.6h-15.6v48.1h-14.2v-48.1h-21.8v-14.2h57.9L223.4,197.6z"/>
	<path class="st1" d="M321.3,245.7h-11.6l-7.6-17.1l-7.6,17.1H283l-27.6-62.3h16l17.4,39.2l5.3-12l-12-27.1h16l4,9.1l4-9.1h16
		l-12,27.1l5.3,12l17.4-39.2h16L321.3,245.7z"/>
	<path class="st1" d="M357.5,245.7l-6.2-14.2h20.4l-11-24.9l-17.4,39.2h-16l27.6-62.3h11.6l27.6,62.3H357.5z"/>
	<path class="st1" d="M455.4,226.6c0,5.3-1.9,9.8-5.6,13.5s-8.2,5.6-13.5,5.6h-38.7v-14.2h38.7c1.4,0,2.5-0.5,3.5-1.4
		c0.9-0.9,1.4-2.1,1.4-3.5c0-1.4-0.5-2.5-1.4-3.5s-2.1-1.4-3.5-1.4h-19.6c-5.3,0-9.8-1.9-13.5-5.6c-3.7-3.7-5.6-8.2-5.6-13.5
		c0-5.3,1.9-9.8,5.6-13.5c3.7-3.7,8.2-5.6,13.5-5.6h38.7l-6.2,14.2h-32.5c-1.4,0-2.5,0.5-3.5,1.4c-0.9,1-1.4,2.1-1.4,3.5
		c0,1.4,0.5,2.5,1.4,3.5c0.9,0.9,2.1,1.4,3.5,1.4h19.6c5.3,0,9.8,1.9,13.5,5.6C453.5,216.8,455.4,221.3,455.4,226.6z"/>
	<path class="st1" d="M481.2,245.7v-62.3h14.2v62.3H481.2z"/>
	<path class="st1" d="M542.6,245.7l-29.4-35.3v35.3H499v-62.3h14.2l29.4,35.3v-35.3h14.2v62.3H542.6z"/>
	<path class="st1" d="M612,197.6h-15.6v48.1h-14.2v-48.1h-21.8v-14.2h57.8L612,197.6z"/>
	<path class="st1" d="M621.8,245.7v-62.3h53.4l-6.2,14.2h-32.9v9.8h30.3v14.2h-30.3v9.8h39.2v14.2H621.8z"/>
	<path class="st1" d="M722.4,245.7L693,210.4v35.3h-14.2v-62.3H693l29.4,35.3v-35.3h14.2v62.3H722.4z"/>
	<path class="st1" d="M798.1,214.5c0,8.6-3.1,16-9.2,22.1c-6.1,6.1-13.4,9.1-22,9.1h-26.7v-62.3h26.7c8.6,0,15.9,3.1,22,9.2
		C795,198.6,798.1,205.9,798.1,214.5z M783.8,214.5c0-4.6-1.7-8.6-5-11.9c-3.3-3.3-7.3-5-11.9-5h-12.5v33.8h12.5
		c4.7,0,8.7-1.6,11.9-4.9C782.2,223.2,783.8,219.2,783.8,214.5z"/>
	<path class="st1" d="M801.6,245.7v-62.3H855l-6.2,14.2h-32.9v9.8h30.3v14.2h-30.3v9.8H855v14.2H801.6z"/>
	<path class="st1" d="M910.2,197.6h-15.6v48.1h-14.2v-48.1h-21.8v-14.2h57.8L910.2,197.6z"/>
</g>
<g>
	<path class="st0" d="M584.5,129.8v8.9h-32.3l0-7.4c9.6-13.8,15.3-22.4,17.1-25.7c1.8-3.3,2.7-5.8,2.7-7.7c0-1.4-0.3-2.5-0.8-3.2
		c-0.5-0.7-1.4-1-2.5-1c-1.1,0-1.9,0.4-2.5,1.2s-0.8,2.3-0.8,4.6v4.9h-13.2v-1.9c0-2.9,0.2-5.2,0.5-6.9c0.3-1.7,1.2-3.3,2.5-5
		c1.3-1.6,3.1-2.9,5.2-3.7c2.1-0.8,4.7-1.3,7.7-1.3c5.8,0,10.3,1.3,13.2,3.8c3,2.6,4.5,5.8,4.5,9.7c0,3-0.8,6.1-2.5,9.4
		c-1.7,3.3-6.6,10.4-14.9,21.1H584.5z"/>
</g>
</svg>
