<?xml version="1.0" encoding="utf-8"?>
<!-- Generator: Adobe Illustrator 22.1.0, SVG Export Plug-In . SVG Version: 6.00 Build 0)  -->
<svg version="1.1" id="Layer_1" xmlns="http://www.w3.org/2000/svg" xmlns:xlink="http://www.w3.org/1999/xlink" x="0px" y="0px"
	 viewBox="0 0 590.4 128" style="enable-background:new 0 0 590.4 128;" xml:space="preserve">
<style type="text/css">
	.st0{fill:#FFFFFF;}
</style>
<path class="st0" d="M590.4,56v72H0V26c0-8.2,6.7-14.9,14.9-14.9c8.2,0,14.9,6.7,14.9,14.9v34.6c0-8.2,6.7-14.9,14.9-14.9
	c8.2,0,14.9,6.7,14.9,14.9V46c0-8.2,6.7-14.9,14.9-14.9c8.2,0,14.9,6.7,14.9,14.9v27c0-8.2,6.7-14.9,14.9-14.9
	c8.2,0,14.9,6.7,14.9,14.9V14.9C119,6.7,125.7,0,133.9,0c8.2,0,14.9,6.7,14.9,14.9v26.7c1.9-6,7.5-10.4,14.2-10.4
	c8.2,0,14.9,6.7,14.9,14.9v29.1c2.4-5.1,7.5-8.7,13.5-8.7c8.2,0,14.9,6.7,14.9,14.9V67.5c0-8.2,6.7-14.9,14.9-14.9
	c8.2,0,14.9,6.7,14.9,14.9v20.4c0.2-8,6.8-14.5,14.9-14.5s14.7,6.5,14.9,14.5c0,0.1,0,0.2,0,0.3V64c0-8.2,6.7-14.9,14.9-14.9
	c7,0,12.8,4.9,14.4,11.4V32c0-8.2,6.7-14.9,14.9-14.9c8.2,0,14.9,6.7,14.9,14.9v28.6c0-8.2,6.7-14.9,14.9-14.9
	c8.2,0,14.9,6.7,14.9,14.9V46c0-8.2,6.7-14.9,14.9-14.9c8.2,0,14.9,6.7,14.9,14.9v27c0-8.2,6.7-14.9,14.9-14.9
	c8.2,0,14.9,6.7,14.9,14.9V20.9c0-8.2,6.7-14.9,14.9-14.9c8.2,0,14.9,6.7,14.9,14.9v20.7c1.9-6,7.5-10.4,14.2-10.4
	c8.2,0,14.9,6.7,14.9,14.9v29.1c2.4-5.1,7.5-8.7,13.5-8.7c8.2,0,14.9,6.7,14.9,14.9V67.5c0-8.2,6.7-14.9,14.9-14.9
	c8.2,0,14.9,6.7,14.9,14.9v20.4c0.2-8,6.8-14.5,14.9-14.5s14.7,6.5,14.9,14.5c0,0.1,0,0.2,0,0.3V56c0-8.2,6.7-14.9,14.9-14.9
	C583.8,41.1,590.4,47.8,590.4,56z"/>
</svg>
