<?xml version="1.0" encoding="utf-8"?>
<!-- Generator: Adobe Illustrator 22.1.0, SVG Export Plug-In . SVG Version: 6.00 Build 0)  -->
<svg version="1.1" id="Layer_1" xmlns="http://www.w3.org/2000/svg" xmlns:xlink="http://www.w3.org/1999/xlink" x="0px" y="0px"
	 viewBox="0 0 590.4 128" style="enable-background:new 0 0 590.4 128;" xml:space="preserve">
<style type="text/css">
	.st0{fill:#FFFFFF;}
</style>
<path class="st0" d="M0,72V0h590.4v102c0,8.2-6.7,14.9-14.9,14.9c-8.2,0-14.9-6.7-14.9-14.9V67.5c0,8.2-6.7,14.9-14.9,14.9
	c-8.2,0-14.9-6.7-14.9-14.9V82c0,8.2-6.7,14.9-14.9,14.9c-8.2,0-14.9-6.7-14.9-14.9V55c0,8.2-6.7,14.9-14.9,14.9
	c-8.2,0-14.9-6.7-14.9-14.9v58.1c0,8.2-6.7,14.9-14.9,14.9c-8.2,0-14.9-6.7-14.9-14.9V86.5c-1.9,6-7.5,10.4-14.2,10.4
	c-8.2,0-14.9-6.7-14.9-14.9V52.9c-2.4,5.1-7.5,8.7-13.5,8.7c-8.2,0-14.9-6.7-14.9-14.9v13.8c0,8.2-6.7,14.9-14.9,14.9
	c-8.2,0-14.9-6.7-14.9-14.9V40.1c-0.2,8-6.8,14.5-14.9,14.5s-14.7-6.5-14.9-14.5c0-0.1,0-0.2,0-0.3V64c0,8.2-6.7,14.9-14.9,14.9
	c-7,0-12.8-4.9-14.4-11.4V96c0,8.2-6.7,14.9-14.9,14.9c-8.2,0-14.9-6.7-14.9-14.9V67.5c0,8.2-6.7,14.9-14.9,14.9
	c-8.2,0-14.9-6.7-14.9-14.9V82c0,8.2-6.7,14.9-14.9,14.9c-8.2,0-14.9-6.7-14.9-14.9V55c0,8.2-6.7,14.9-14.9,14.9
	c-8.2,0-14.9-6.7-14.9-14.9v52.1c0,8.2-6.7,14.9-14.9,14.9c-8.2,0-14.9-6.7-14.9-14.9V86.5c-1.9,6-7.5,10.4-14.2,10.4
	c-8.2,0-14.9-6.7-14.9-14.9V52.9c-2.4,5.1-7.5,8.7-13.5,8.7c-8.2,0-14.9-6.7-14.9-14.9v13.8c0,8.2-6.7,14.9-14.9,14.9
	c-8.2,0-14.9-6.7-14.9-14.9V40.1c-0.2,8-6.8,14.5-14.9,14.5S30,48.2,29.8,40.1c0-0.1,0-0.2,0-0.3V72c0,8.2-6.7,14.9-14.9,14.9
	C6.7,86.9,0,80.2,0,72z"/>
</svg>
